<svg width="20" height="20" viewBox="0 0 20 20" fill="none" xmlns="http://www.w3.org/2000/svg">
<path d="M15.0737 15.525C14.0012 16.5103 12.6649 17.1619 11.2282 17.4004C9.79138 17.6389 8.31625 17.4539 6.98287 16.868C5.64948 16.2821 4.51554 15.3207 3.71947 14.1011C2.92341 12.8815 2.49967 11.4564 2.5 10H3.75C3.74991 11.2589 4.12998 12.4884 4.84043 13.5277C5.55088 14.5669 6.5586 15.3674 7.73164 15.8243C8.90467 16.2812 10.1883 16.3732 11.4145 16.0883C12.6407 15.8034 13.7523 15.1548 14.6037 14.2275H12.7875C12.6217 14.2275 12.4628 14.1617 12.3456 14.0444C12.2283 13.9272 12.1625 13.7683 12.1625 13.6025C12.1625 13.4367 12.2283 13.2778 12.3456 13.1606C12.4628 13.0434 12.6217 12.9775 12.7875 12.9775H15.6987C15.8645 12.9775 16.0235 13.0434 16.1407 13.1606C16.2579 13.2778 16.3237 13.4367 16.3237 13.6025V16.5113C16.3237 16.677 16.2579 16.836 16.1407 16.9532C16.0235 17.0704 15.8645 17.1363 15.6987 17.1363C15.533 17.1363 15.374 17.0704 15.2568 16.9532C15.1396 16.836 15.0737 16.677 15.0737 16.5113V15.5238V15.525ZM5.39625 5.77376H7.2125C7.37826 5.77376 7.53723 5.8396 7.65444 5.95681C7.77165 6.07402 7.8375 6.233 7.8375 6.39876C7.8375 6.56452 7.77165 6.72349 7.65444 6.8407C7.53723 6.95791 7.37826 7.02376 7.2125 7.02376H4.3C4.13424 7.02376 3.97527 6.95791 3.85806 6.8407C3.74085 6.72349 3.675 6.56452 3.675 6.39876V3.48751C3.675 3.32175 3.74085 3.16277 3.85806 3.04556C3.97527 2.92835 4.13424 2.86251 4.3 2.86251C4.46576 2.86251 4.62473 2.92835 4.74194 3.04556C4.85915 3.16277 4.925 3.32175 4.925 3.48751V4.47501C5.99744 3.48851 7.33403 2.83579 8.77143 2.5966C10.2088 2.35742 11.6848 2.54214 13.0189 3.12818C14.353 3.71423 15.4875 4.67622 16.2837 5.89659C17.08 7.11696 17.5035 8.54285 17.5025 10H16.2525C16.2526 8.74097 15.8725 7.51124 15.1619 6.47191C14.4512 5.43258 13.4433 4.63209 12.2701 4.1753C11.0968 3.71851 9.81294 3.62671 8.58663 3.91193C7.36033 4.19716 6.24875 4.8461 5.3975 5.77376H5.39625Z" fill="black"/>
</svg>
