<svg width="774" height="563" viewBox="0 0 774 563" fill="none" xmlns="http://www.w3.org/2000/svg">
<path d="M139.708 135.828V288.977C139.847 290.871 140.492 292.694 141.576 294.255C142.659 295.815 144.142 297.057 145.869 297.849L273.162 371.309C282.32 376.595 298.323 376.028 308.897 369.822C314.822 366.4 317.796 361.988 317.631 357.858V204.662L139.708 135.828Z" fill="#42E8E0"/>
<path d="M273.185 218.16L145.892 144.701C136.734 139.391 137.867 130.165 148.465 124.053C159.04 117.988 175.043 117.28 184.106 122.566L311.564 196.049C320.723 201.335 319.566 210.562 308.992 216.673C298.347 222.785 282.343 223.446 273.185 218.16Z" fill="#9FFFF8"/>
<path d="M285.884 208.32C282.967 208.32 280.169 207.161 278.106 205.099C276.044 203.037 274.885 200.24 274.885 197.323V129.268C274.885 106.048 257.89 76.6451 237.804 65.0351L208.583 48.1864C200.865 43.7264 193.902 42.6409 189.464 45.2131C185.027 47.7852 182.383 54.3454 182.383 63.2417V131.297C182.383 134.214 181.224 137.011 179.162 139.073C177.099 141.135 174.301 142.294 171.384 142.294C168.467 142.294 165.669 141.135 163.606 139.073C161.544 137.011 160.385 134.214 160.385 131.297V63.2417C160.385 46.0154 166.758 32.8479 178.347 26.1462C189.936 19.4445 204.665 20.53 219.511 29.1431L248.732 45.9918C275.687 61.5662 296.812 98.1426 296.812 129.268V197.323C296.812 200.228 295.663 203.014 293.616 205.074C291.568 207.134 288.789 208.301 285.884 208.32Z" fill="#42E8E0"/>
</svg>
