<svg width="179" height="354" viewBox="0 0 179 354" fill="none" xmlns="http://www.w3.org/2000/svg">
<path d="M0.708313 114.828V267.977C0.847418 269.871 1.49238 271.694 2.57593 273.255C3.65949 274.815 5.14196 276.057 6.86879 276.849L134.162 350.309C143.32 355.595 159.323 355.028 169.897 348.822C175.822 345.4 178.796 340.988 178.631 336.858V183.662L0.708313 114.828Z" fill="#42E8E0"/>
<path d="M134.185 197.16L6.89243 123.701C-2.26567 118.391 -1.13271 109.165 9.4652 103.053C20.0395 96.9882 36.0426 96.2802 45.1063 101.566L172.564 175.049C181.723 180.335 180.566 189.562 169.992 195.673C159.347 201.785 143.343 202.446 134.185 197.16Z" fill="#9FFFF8"/>
<path d="M146.884 187.32C143.967 187.32 141.169 186.161 139.106 184.099C137.044 182.037 135.885 179.24 135.885 176.323V108.268C135.885 85.0478 118.89 55.6451 98.8039 44.0351L69.583 27.1864C61.8647 22.7264 54.9017 21.6409 50.4642 24.2131C46.0268 26.7852 43.3832 33.3454 43.3832 42.2417V110.297C43.3832 113.214 42.2244 116.011 40.1617 118.073C38.0989 120.135 35.3012 121.294 32.3841 121.294C29.4669 121.294 26.6692 120.135 24.6065 118.073C22.5437 116.011 21.3849 113.214 21.3849 110.297V42.2417C21.3849 25.0154 27.7578 11.8479 39.3471 5.14619C50.9363 -1.55554 65.6648 -0.470047 80.5113 8.14309L109.732 24.9918C136.687 40.5662 157.812 77.1426 157.812 108.268V176.323C157.812 179.228 156.663 182.014 154.616 184.074C152.568 186.134 149.789 187.301 146.884 187.32Z" fill="#42E8E0"/>
</svg>
