<svg width="774" height="563" viewBox="0 0 774 563" fill="none" xmlns="http://www.w3.org/2000/svg">
<path d="M283.783 520.257C278.04 520.408 272.354 519.092 267.261 516.434L49.8739 391.013C45.5073 388.488 43.1234 384.995 43.1234 381.149C43.1234 376.429 46.5694 371.922 52.5647 368.453L467.016 129.221C478.275 122.731 495.34 122.141 505.183 127.663L722.476 253.085C726.842 255.61 729.226 259.102 729.226 262.948C729.226 267.55 725.78 272.199 719.785 275.668L305.333 514.877C298.725 518.473 291.307 520.325 283.783 520.257ZM267.639 515.537C277.08 521.036 293.862 520.257 304.861 513.98L719.313 274.865C725.025 271.562 728.306 267.22 728.306 263.066C728.306 259.574 726.063 256.365 722.003 254.028L504.711 128.489C495.269 122.991 478.487 123.77 467.488 130.047L53.0604 369.256C47.3247 372.559 44.0439 376.901 44.0439 381.055C44.0439 384.547 46.2862 387.756 50.346 390.116L267.639 515.537Z" fill="#42E8E0"/>
<path d="M728.778 205.016L697.55 210.396L504.947 99.11C495.293 93.541 478.417 94.2489 467.181 100.691L98.7801 313.471L43.5954 322.91V342.472C43.5954 346.036 45.6725 349.434 50.0864 351.911L267.379 477.333C277.056 482.926 293.933 482.218 305.144 475.775L719.549 236.684C725.544 233.215 728.636 228.803 728.73 224.579L728.778 205.016Z" fill="url(#paint0_linear_60_248)"/>
<path d="M267.403 457.794L50.11 332.349C40.4562 326.756 41.6599 317.034 52.8243 310.592L467.347 71.3592C478.511 64.9407 495.387 64.2799 505.112 69.8018L722.263 195.247C731.94 200.816 730.713 210.562 719.572 217.004L305.097 456.213C293.956 462.655 277.08 463.34 267.403 457.794Z" fill="#24126A"/>
<path d="M719.549 217.098L305.097 456.213C293.956 462.655 277.08 463.292 267.332 457.77L50.11 332.349C48.4839 331.558 47.0614 330.404 45.9524 328.976C44.8433 327.548 44.0773 325.884 43.7134 324.113C43.0998 328.125 45.1769 332.042 50.11 334.874L267.403 460.319C277.08 465.888 293.956 465.18 305.168 458.738L719.549 219.458C726.229 215.612 729.297 210.562 728.66 205.937C728.07 209.877 725.001 213.842 719.549 217.098Z" fill="white"/>
<path opacity="0.51" d="M267.827 452.909L58.2767 331.924C48.8354 326.52 50.1099 317.105 60.8967 310.875L467.654 76.1495C478.44 69.9198 494.774 69.2354 504.121 74.6393L713.671 195.624C723.113 201.028 721.862 210.444 711.051 216.673L304.318 451.399C293.508 457.629 277.198 458.313 267.827 452.909Z" fill="#453C9E"/>
<path style="mix-blend-mode:lighten" opacity="0.8" d="M283.665 451.8C278.048 451.96 272.484 450.685 267.497 448.095L57.9463 327.11C56.0637 326.233 54.4522 324.865 53.281 323.15C52.1098 321.435 51.4221 319.437 51.2901 317.365C51.2901 312.834 54.6654 308.279 60.5663 304.881L467.347 70.1557C478.322 63.8316 494.986 63.0764 504.498 68.6455L714.073 189.631C715.951 190.511 717.558 191.88 718.724 193.595C719.891 195.31 720.576 197.307 720.705 199.376C720.705 203.907 717.33 208.461 711.453 211.86L304.649 446.585C298.209 450.073 290.989 451.868 283.665 451.8ZM268.182 446.916C277.316 452.201 293.39 451.635 303.988 445.405L710.721 210.703C716.173 207.541 719.313 203.412 719.313 199.376C719.175 197.545 718.548 195.784 717.498 194.278C716.447 192.771 715.012 191.574 713.341 190.81L503.79 69.8254C494.632 64.5395 478.582 65.2238 467.984 71.3356L61.3688 306.038C55.8928 309.2 52.7535 313.329 52.7535 317.365C52.8912 319.199 53.5206 320.963 54.5755 322.47C55.6305 323.977 57.0721 325.173 58.7488 325.93L268.182 446.916Z" fill="url(#paint1_linear_60_248)"/>
<g opacity="0.3">
<path style="mix-blend-mode:lighten" opacity="0.5" d="M267.827 447.505L58.2767 326.52C48.8354 321.117 50.1099 311.701 60.8967 305.471L467.654 70.7929C478.44 64.5631 494.774 63.8788 504.121 69.2827L713.671 190.268C723.113 195.672 721.862 205.111 711.051 211.34L304.318 445.995C293.508 452.225 277.198 452.909 267.827 447.505Z" fill="url(#paint2_radial_60_248)"/>
<g opacity="0.3">
<path opacity="0.3" d="M139.708 316.963V470.112C139.836 472.019 140.479 473.855 141.568 475.426C142.657 476.997 144.151 478.243 145.892 479.032L273.185 552.515C282.343 557.801 298.347 557.234 308.921 551.028C314.845 547.607 317.819 543.194 317.654 539.041V385.798L139.708 316.963Z" fill="#42E8E0"/>
<path opacity="0.3" d="M273.185 399.296L145.892 325.813C136.734 320.527 137.867 311.3 148.465 305.188C159.039 299.076 175.043 298.416 184.201 303.702L311.564 377.185C320.723 382.47 319.566 391.697 308.992 397.809C298.347 403.921 282.343 404.581 273.185 399.296Z" fill="#9FFFF8"/>
</g>
</g>
<path opacity="0.4" d="M479.432 294.97L334.295 211.199C324.428 205.512 325.656 195.53 337.08 188.946C348.48 182.363 365.758 181.655 375.624 187.342L520.738 271.113C530.627 276.824 529.4 286.782 517.976 293.366C506.576 300.044 489.298 300.775 479.432 294.97Z" fill="#24126A"/>
<path opacity="0.4" d="M479.432 284.682L334.295 200.91C324.428 195.2 325.656 185.241 337.08 178.658C348.48 172.074 365.758 171.366 375.624 177.053L520.738 260.825C530.627 266.535 529.4 276.493 517.976 283.077C506.576 289.661 489.298 290.392 479.432 284.682Z" fill="#42E8E0"/>
<path d="M496.166 288.977C490.27 289.148 484.427 287.808 479.196 285.083L334.058 201.311C329.621 198.739 327.166 195.176 327.166 191.259C327.166 186.539 330.683 181.82 336.844 178.257C348.362 171.602 365.876 170.87 375.86 176.652L520.974 260.423C525.435 262.996 527.889 266.559 527.889 270.5C527.889 275.219 524.349 279.939 518.212 283.478C511.45 287.153 503.863 289.045 496.166 288.977ZM479.644 284.257C489.392 289.873 506.481 289.165 517.74 282.652C523.594 279.278 526.945 274.842 526.945 270.476C526.945 266.889 524.585 263.609 520.525 261.202L375.294 177.454C365.569 171.838 348.48 172.569 337.221 179.059C331.368 182.433 328.016 186.893 328.016 191.259C328.016 194.822 330.376 198.102 334.436 200.509L479.644 284.257Z" fill="#42E8E0"/>
<path opacity="0.4" d="M505.82 276.824C503.919 277.79 501.816 278.293 499.683 278.293C497.551 278.293 495.448 277.79 493.546 276.824C490.148 274.865 490.148 271.679 493.546 269.744C495.448 268.779 497.551 268.275 499.683 268.275C501.816 268.275 503.919 268.779 505.82 269.744C509.196 271.679 509.196 274.865 505.82 276.824Z" fill="#42E8E0"/>
<path d="M499.683 278.594C497.491 278.637 495.323 278.126 493.381 277.107C492.635 276.761 491.992 276.227 491.516 275.556C491.04 274.886 490.747 274.103 490.667 273.284C490.747 272.466 491.04 271.683 491.516 271.012C491.992 270.341 492.635 269.807 493.381 269.461C495.335 268.472 497.494 267.957 499.683 267.957C501.873 267.957 504.032 268.472 505.985 269.461C506.736 269.798 507.382 270.331 507.856 271.004C508.329 271.676 508.613 272.464 508.676 273.284C508.598 274.1 508.309 274.882 507.837 275.552C507.366 276.222 506.727 276.758 505.985 277.107C504.044 278.126 501.876 278.637 499.683 278.594ZM499.683 268.588C497.602 268.543 495.544 269.039 493.712 270.028C493.065 270.313 492.506 270.765 492.091 271.337C491.676 271.909 491.421 272.581 491.351 273.284C491.426 273.986 491.683 274.656 492.097 275.227C492.511 275.799 493.068 276.252 493.712 276.541C495.564 277.472 497.609 277.958 499.683 277.958C501.757 277.958 503.802 277.472 505.655 276.541C506.299 276.252 506.856 275.799 507.27 275.227C507.684 274.656 507.941 273.986 508.015 273.284C507.946 272.581 507.691 271.909 507.276 271.337C506.861 270.765 506.302 270.313 505.655 270.028C503.822 269.042 501.765 268.546 499.683 268.588Z" fill="#42E8E0"/>
<path opacity="0.4" d="M485.427 264.931C483.525 265.896 481.423 266.4 479.29 266.4C477.157 266.4 475.055 265.896 473.153 264.931C469.778 262.996 469.778 259.81 473.153 257.851C475.055 256.885 477.157 256.382 479.29 256.382C481.423 256.382 483.525 256.885 485.427 257.851C488.826 259.81 488.826 262.996 485.427 264.931Z" fill="#42E8E0"/>
<path d="M479.29 262.83C477.098 262.871 474.931 262.36 472.988 261.344C472.201 261.057 471.522 260.535 471.043 259.849C470.563 259.163 470.305 258.346 470.305 257.509C470.305 256.672 470.563 255.855 471.043 255.17C471.522 254.484 472.201 253.962 472.988 253.675C474.946 252.702 477.103 252.195 479.29 252.195C481.477 252.195 483.634 252.702 485.592 253.675C486.389 253.951 487.08 254.469 487.569 255.156C488.058 255.843 488.321 256.666 488.321 257.509C488.321 258.353 488.058 259.175 487.569 259.862C487.08 260.55 486.389 261.067 485.592 261.344C483.65 262.363 481.482 262.874 479.29 262.83ZM479.29 252.825C477.212 252.787 475.158 253.274 473.318 254.241C472.632 254.47 472.036 254.908 471.613 255.495C471.19 256.082 470.963 256.786 470.963 257.509C470.963 258.232 471.19 258.937 471.613 259.523C472.036 260.11 472.632 260.549 473.318 260.777C475.171 261.709 477.216 262.194 479.29 262.194C481.364 262.194 483.409 261.709 485.262 260.777C485.96 260.561 486.57 260.127 487.004 259.539C487.437 258.951 487.671 258.24 487.671 257.509C487.671 256.779 487.437 256.067 487.004 255.479C486.57 254.891 485.96 254.457 485.262 254.241C483.423 253.271 481.368 252.784 479.29 252.825Z" fill="#42E8E0"/>
<path d="M426.253 219.906C424.058 219.953 421.887 219.433 419.951 218.396C419.2 218.059 418.554 217.527 418.081 216.854C417.607 216.181 417.324 215.393 417.26 214.573C417.338 213.757 417.627 212.976 418.099 212.305C418.571 211.635 419.209 211.099 419.951 210.75C421.905 209.761 424.064 209.246 426.253 209.246C428.443 209.246 430.602 209.761 432.555 210.75C433.302 211.096 433.945 211.631 434.421 212.301C434.897 212.972 435.19 213.755 435.27 214.573C435.19 215.392 434.897 216.175 434.421 216.845C433.945 217.516 433.302 218.051 432.555 218.396C430.619 219.433 428.449 219.953 426.253 219.906ZM426.253 209.901C424.175 209.86 422.12 210.347 420.282 211.317C419.638 211.606 419.081 212.059 418.667 212.63C418.253 213.202 417.996 213.872 417.921 214.573C417.991 215.276 418.246 215.949 418.661 216.521C419.076 217.093 419.635 217.545 420.282 217.83C422.131 218.772 424.177 219.264 426.253 219.264C428.329 219.264 430.376 218.772 432.225 217.83C432.872 217.545 433.431 217.093 433.846 216.521C434.26 215.949 434.516 215.276 434.585 214.573C434.511 213.872 434.254 213.202 433.84 212.63C433.426 212.059 432.869 211.606 432.225 211.317C430.376 210.388 428.321 209.941 426.253 210.019V209.901Z" fill="#42E8E0"/>
<path opacity="0.4" d="M432.39 235.316C430.489 236.281 428.386 236.785 426.253 236.785C424.12 236.785 422.018 236.281 420.116 235.316C416.741 233.357 416.741 230.195 420.116 228.236C422.018 227.27 424.12 226.767 426.253 226.767C428.386 226.767 430.489 227.27 432.39 228.236C435.789 230.195 435.789 233.357 432.39 235.316Z" fill="#42E8E0"/>
<path d="M405.978 197.961C403.79 198.008 401.627 197.487 399.699 196.45C398.953 196.105 398.31 195.57 397.834 194.9C397.358 194.229 397.065 193.446 396.985 192.627C397.05 191.817 397.323 191.037 397.778 190.363C398.233 189.689 398.854 189.144 399.581 188.781C401.531 187.792 403.686 187.277 405.872 187.277C408.058 187.277 410.213 187.792 412.162 188.781C412.908 189.127 413.551 189.661 414.028 190.332C414.504 191.002 414.796 191.785 414.876 192.604C414.796 193.422 414.504 194.206 414.028 194.876C413.551 195.547 412.908 196.081 412.162 196.427C410.265 197.455 408.136 197.983 405.978 197.961ZM405.978 187.955C403.9 187.917 401.846 188.404 400.006 189.371C399.364 189.662 398.808 190.115 398.394 190.686C397.98 191.257 397.723 191.926 397.646 192.627C397.716 193.331 397.971 194.003 398.386 194.575C398.8 195.147 399.36 195.599 400.006 195.884C401.856 196.827 403.902 197.318 405.978 197.318C408.054 197.318 410.1 196.827 411.95 195.884C412.596 195.599 413.156 195.147 413.57 194.575C413.985 194.003 414.24 193.331 414.31 192.627C414.236 191.926 413.979 191.256 413.565 190.684C413.15 190.113 412.594 189.66 411.95 189.371C410.112 188.398 408.057 187.911 405.978 187.955Z" fill="#42E8E0"/>
<path opacity="0.4" d="M411.997 224.414C410.1 225.379 408.001 225.883 405.872 225.883C403.743 225.883 401.644 225.379 399.747 224.414C396.348 222.455 396.348 219.293 399.747 217.334C401.644 216.369 403.743 215.865 405.872 215.865C408.001 215.865 410.1 216.369 411.997 217.334C415.419 219.293 415.419 222.455 411.997 224.414Z" fill="#42E8E0"/>
<path d="M385.49 171.272C383.295 171.318 381.124 170.798 379.188 169.761C378.399 169.48 377.717 168.962 377.234 168.277C376.752 167.593 376.492 166.776 376.492 165.939C376.492 165.101 376.752 164.284 377.234 163.6C377.717 162.916 378.399 162.397 379.188 162.116C381.142 161.127 383.301 160.611 385.49 160.611C387.68 160.611 389.839 161.127 391.792 162.116C392.534 162.464 393.173 163 393.644 163.671C394.116 164.341 394.405 165.123 394.483 165.939C394.422 166.756 394.142 167.542 393.673 168.215C393.203 168.887 392.562 169.421 391.816 169.761C389.872 170.799 387.694 171.319 385.49 171.272ZM385.49 161.266C383.412 161.225 381.357 161.712 379.519 162.682C378.875 162.971 378.318 163.424 377.904 163.995C377.49 164.567 377.233 165.237 377.158 165.939C377.228 166.642 377.483 167.314 377.898 167.886C378.313 168.458 378.872 168.91 379.519 169.195C381.368 170.138 383.414 170.629 385.49 170.629C387.566 170.629 389.613 170.138 391.462 169.195C392.109 168.91 392.668 168.458 393.083 167.886C393.497 167.314 393.753 166.642 393.822 165.939C393.743 165.238 393.485 164.57 393.071 164C392.657 163.429 392.103 162.975 391.462 162.682C389.622 161.715 387.568 161.228 385.49 161.266Z" fill="#42E8E0"/>
<path opacity="0.4" d="M391.273 213.11C389.372 214.076 387.269 214.579 385.136 214.579C383.003 214.579 380.901 214.076 378.999 213.11C375.6 211.152 375.6 207.99 378.999 206.031C380.901 205.065 383.003 204.562 385.136 204.562C387.269 204.562 389.372 205.065 391.273 206.031C394.648 207.99 394.648 211.152 391.273 213.11Z" fill="#42E8E0"/>
<path opacity="0.4" d="M449.715 237.911L467.465 248.176C470.392 249.852 470.037 252.896 466.639 254.784C464.897 255.743 462.957 256.285 460.97 256.367C458.984 256.449 457.005 256.068 455.191 255.256L437.441 245.014C434.514 243.315 434.892 240.295 438.267 238.407C440.005 237.438 441.945 236.889 443.932 236.803C445.92 236.717 447.9 237.097 449.715 237.911Z" fill="#42E8E0"/>
<path d="M460.266 248.436C458.477 248.493 456.705 248.087 455.12 247.256L437.37 237.015C436.767 236.731 436.25 236.29 435.877 235.738C435.503 235.185 435.285 234.542 435.246 233.876C435.338 233.003 435.66 232.17 436.178 231.462C436.696 230.753 437.393 230.194 438.197 229.841C439.989 228.844 441.991 228.282 444.041 228.2C446.091 228.118 448.131 228.518 449.998 229.369L467.748 239.61C468.354 239.901 468.871 240.346 469.249 240.902C469.626 241.457 469.849 242.103 469.896 242.772C469.793 243.642 469.464 244.47 468.942 245.174C468.421 245.877 467.724 246.432 466.922 246.784C464.884 247.901 462.59 248.47 460.266 248.436ZM444.758 228.897C442.552 228.874 440.376 229.41 438.433 230.455C437.732 230.758 437.121 231.237 436.658 231.844C436.195 232.451 435.896 233.167 435.789 233.923C435.834 234.476 436.026 235.006 436.346 235.458C436.665 235.911 437.101 236.269 437.606 236.496L455.356 246.737C457.116 247.537 459.04 247.912 460.971 247.83C462.903 247.748 464.788 247.212 466.473 246.265C467.172 245.965 467.783 245.491 468.246 244.888C468.709 244.284 469.009 243.572 469.117 242.82C469.074 242.264 468.883 241.73 468.563 241.274C468.243 240.817 467.807 240.454 467.299 240.224L449.55 229.983C448.07 229.222 446.422 228.848 444.758 228.897Z" fill="#42E8E0"/>
<path opacity="0.4" d="M668.919 210.302C667.126 211.221 665.14 211.701 663.125 211.701C661.11 211.701 659.123 211.221 657.33 210.302C654.144 208.461 654.144 205.465 657.33 203.624C659.127 202.716 661.112 202.242 663.125 202.242C665.138 202.242 667.123 202.716 668.919 203.624C672.129 205.465 672.129 208.461 668.919 210.302Z" fill="#24126A"/>
<path opacity="0.4" d="M624.71 178.115L647.393 191.141C650.155 192.745 649.753 195.53 646.614 197.394C644.971 198.304 643.139 198.818 641.262 198.895C639.386 198.973 637.517 198.613 635.804 197.843L613.121 184.746C610.359 183.141 610.761 180.357 613.9 178.516C615.543 177.603 617.379 177.091 619.257 177.022C621.136 176.952 623.004 177.327 624.71 178.115Z" fill="#24126A"/>
<path opacity="0.4" d="M497.276 102.98L519.959 116.077C522.72 117.681 522.319 120.466 519.18 122.306C517.538 123.221 515.705 123.738 513.828 123.816C511.95 123.894 510.081 123.531 508.369 122.755L485.71 109.682C482.925 108.077 483.35 105.269 486.465 103.428C488.107 102.514 489.94 101.997 491.817 101.919C493.695 101.841 495.564 102.204 497.276 102.98Z" fill="#24126A"/>
<path d="M668.919 202.185C667.123 203.093 665.138 203.566 663.125 203.566C661.112 203.566 659.127 203.093 657.33 202.185C654.144 200.344 654.144 197.347 657.33 195.506C659.123 194.587 661.11 194.108 663.125 194.108C665.14 194.108 667.126 194.587 668.919 195.506C672.129 197.347 672.129 200.344 668.919 202.185Z" fill="#42E8E0"/>
<path d="M624.71 169.903L647.393 183C650.155 184.604 649.753 187.389 646.614 189.229C644.973 190.144 643.14 190.661 641.262 190.739C639.385 190.817 637.515 190.453 635.804 189.678L613.121 176.581C610.359 175 610.761 172.192 613.9 170.351C615.541 169.437 617.374 168.919 619.252 168.842C621.129 168.764 622.999 169.127 624.71 169.903Z" fill="#42E8E0"/>
<path d="M497.276 94.8625L519.959 107.936C522.72 109.54 522.319 112.348 519.18 114.189C517.538 115.104 515.705 115.621 513.828 115.699C511.95 115.776 510.081 115.413 508.369 114.637L485.71 101.47C482.925 99.8652 483.35 97.0806 486.465 95.24C488.112 94.3365 489.948 93.8317 491.826 93.7661C493.703 93.7005 495.57 94.076 497.276 94.8625Z" fill="#42E8E0"/>
<defs>
<linearGradient id="paint0_linear_60_248" x1="43.5954" y1="288.339" x2="728.778" y2="288.339" gradientUnits="userSpaceOnUse">
<stop stop-color="#BCBEFF"/>
<stop offset="0.15" stop-color="#A3A7F5"/>
<stop offset="0.39" stop-color="#8289E8"/>
<stop offset="0.61" stop-color="#6A73DF"/>
<stop offset="0.82" stop-color="#5C66D9"/>
<stop offset="1" stop-color="#5761D7"/>
</linearGradient>
<linearGradient id="paint1_linear_60_248" x1="136639" y1="63232.4" x2="112759" y2="8400.41" gradientUnits="userSpaceOnUse">
<stop stop-color="#42E8E0"/>
<stop offset="0.11" stop-color="#37B6BF"/>
<stop offset="0.22" stop-color="#2C87A1"/>
<stop offset="0.34" stop-color="#235F87"/>
<stop offset="0.46" stop-color="#1C3F72"/>
<stop offset="0.58" stop-color="#162561"/>
<stop offset="0.71" stop-color="#121355"/>
<stop offset="0.85" stop-color="#10084E"/>
<stop offset="1" stop-color="#0F054C"/>
</linearGradient>
<radialGradient id="paint2_radial_60_248" cx="0" cy="0" r="1" gradientUnits="userSpaceOnUse" gradientTransform="translate(285.766 297.897) scale(536.292 536.162)">
<stop stop-color="#42E8E0"/>
<stop offset="0.11" stop-color="#37B6BF"/>
<stop offset="0.22" stop-color="#2C87A1"/>
<stop offset="0.34" stop-color="#235F87"/>
<stop offset="0.46" stop-color="#1C3F72"/>
<stop offset="0.58" stop-color="#162561"/>
<stop offset="0.71" stop-color="#121355"/>
<stop offset="0.85" stop-color="#10084E"/>
<stop offset="1" stop-color="#0F054C"/>
</radialGradient>
</defs>
</svg>
