<svg xmlns="http://www.w3.org/2000/svg" xmlns:xlink="http://www.w3.org/1999/xlink" viewBox="0 0 337.24 248.33"><defs><style>.cls-1,.cls-8{mix-blend-mode:lighten;}.cls-1{opacity:0.5;fill:url(#Áåçûìÿííûé_ãðàäèåíò_45);}.cls-2{isolation:isolate;}.cls-13,.cls-3{fill:#42e8e0;}.cls-4{fill:url(#Áåçûìÿííûé_ãðàäèåíò_41);}.cls-12,.cls-5{fill:#24126a;}.cls-6{fill:#fff;}.cls-7{fill:#453c9e;opacity:0.51;}.cls-8{opacity:0.8;fill:url(#Áåçûìÿííûé_ãðàäèåíò_48);}.cls-15,.cls-9{opacity:0.3;}.cls-10{clip-path:url(#clip-path);}.cls-11{fill:#9ffff8;}.cls-12,.cls-13{opacity:0.4;}.cls-14{fill:url(#Áåçûìÿííûé_ãðàäèåíò_54);}.cls-15,.cls-17{fill:#0f054c;}.cls-16{fill:url(#Áåçûìÿííûé_ãðàäèåíò_55);}.cls-18{fill:url(#Áåçûìÿííûé_ãðàäèåíò_54-2);}.cls-19{fill:url(#Áåçûìÿííûé_ãðàäèåíò_55-2);}.cls-20{fill:url(#Áåçûìÿííûé_ãðàäèåíò_54-3);}.cls-21{fill:url(#Áåçûìÿííûé_ãðàäèåíò_55-3);}.cls-22{fill:url(#Áåçûìÿííûé_ãðàäèåíò_54-4);}.cls-23{fill:url(#Áåçûìÿííûé_ãðàäèåíò_55-4);}.cls-24{fill:#5351af;}.cls-25{fill:url(#Áåçûìÿííûé_ãðàäèåíò_54-5);}.cls-26{fill:url(#Áåçûìÿííûé_ãðàäèåíò_55-5);}.cls-27{fill:url(#Áåçûìÿííûé_ãðàäèåíò_54-6);}.cls-28{fill:url(#Áåçûìÿííûé_ãðàäèåíò_55-6);}</style><radialGradient id="Áåçûìÿííûé_ãðàäèåíò_45" cx="121.07" cy="126.24" r="227.21" gradientUnits="userSpaceOnUse"><stop offset="0" stop-color="#42e8e0"/><stop offset="0.11" stop-color="#37b6bf"/><stop offset="0.22" stop-color="#2c87a1"/><stop offset="0.34" stop-color="#235f87"/><stop offset="0.46" stop-color="#1c3f72"/><stop offset="0.58" stop-color="#162561"/><stop offset="0.71" stop-color="#121355"/><stop offset="0.85" stop-color="#10084e"/><stop offset="1" stop-color="#0f054c"/></radialGradient><linearGradient id="Áåçûìÿííûé_ãðàäèåíò_41" x1="18.47" y1="122.19" x2="308.76" y2="122.19" gradientUnits="userSpaceOnUse"><stop offset="0" stop-color="#bcbeff"/><stop offset="0.15" stop-color="#a3a7f5"/><stop offset="0.39" stop-color="#8289e8"/><stop offset="0.61" stop-color="#6a73df"/><stop offset="0.82" stop-color="#5c66d9"/><stop offset="1" stop-color="#5761d7"/></linearGradient><linearGradient id="Áåçûìÿííûé_ãðàäèåíò_48" x1="204.04" y1="163.26" x2="123.01" y2="55.72" xlink:href="#Áåçûìÿííûé_ãðàäèåíò_45"/><clipPath id="clip-path"><path class="cls-1" d="M113.47,189.64,24.69,138.37c-4-2.29-3.46-6.28,1.11-8.92L198.13,30c4.57-2.64,11.49-2.93,15.45-.64l88.78,51.27c4,2.29,3.47,6.29-1.11,8.93L128.93,189C124.35,191.64,117.44,191.93,113.47,189.64Z"/></clipPath><linearGradient id="Áåçûìÿííûé_ãðàäèåíò_54" x1="290.92" y1="193.37" x2="331.73" y2="216.94" gradientUnits="userSpaceOnUse"><stop offset="0" stop-color="#bcbeff"/><stop offset="0.23" stop-color="#aaadf8"/><stop offset="0.68" stop-color="#7c83e5"/><stop offset="1" stop-color="#5761d7"/></linearGradient><linearGradient id="Áåçûìÿííûé_ãðàäèåíò_55" x1="285.8" y1="202.28" x2="337.24" y2="202.28" gradientUnits="userSpaceOnUse"><stop offset="0" stop-color="#e9e9fd"/><stop offset="0.36" stop-color="#d3d2f9"/><stop offset="0.71" stop-color="#c5c4f7"/><stop offset="1" stop-color="#c0bff6"/></linearGradient><linearGradient id="Áåçûìÿííûé_ãðàäèåíò_54-2" x1="290.92" y1="163.34" x2="331.73" y2="186.9" xlink:href="#Áåçûìÿííûé_ãðàäèåíò_54"/><linearGradient id="Áåçûìÿííûé_ãðàäèåíò_55-2" x1="285.8" y1="172.24" x2="337.24" y2="172.24" xlink:href="#Áåçûìÿííûé_ãðàäèåíò_55"/><linearGradient id="Áåçûìÿííûé_ãðàäèåíò_54-3" x1="202.85" y1="220.03" x2="243.66" y2="243.59" xlink:href="#Áåçûìÿííûé_ãðàäèåíò_54"/><linearGradient id="Áåçûìÿííûé_ãðàäèåíò_55-3" x1="197.73" y1="228.93" x2="249.17" y2="228.93" xlink:href="#Áåçûìÿííûé_ãðàäèåíò_55"/><linearGradient id="Áåçûìÿííûé_ãðàäèåíò_54-4" x1="202.85" y1="187.81" x2="243.66" y2="211.37" xlink:href="#Áåçûìÿííûé_ãðàäèåíò_54"/><linearGradient id="Áåçûìÿííûé_ãðàäèåíò_55-4" x1="197.73" y1="196.72" x2="249.17" y2="196.72" xlink:href="#Áåçûìÿííûé_ãðàäèåíò_55"/><linearGradient id="Áåçûìÿííûé_ãðàäèåíò_54-5" x1="5.12" y1="35.94" x2="45.93" y2="59.5" xlink:href="#Áåçûìÿííûé_ãðàäèåíò_54"/><linearGradient id="Áåçûìÿííûé_ãðàäèåíò_55-5" x1="0" y1="44.85" x2="51.44" y2="44.85" xlink:href="#Áåçûìÿííûé_ãðàäèåíò_55"/><linearGradient id="Áåçûìÿííûé_ãðàäèåíò_54-6" x1="5.12" y1="5.94" x2="45.93" y2="29.5" xlink:href="#Áåçûìÿííûé_ãðàäèåíò_54"/><linearGradient id="Áåçûìÿííûé_ãðàäèåíò_55-6" x1="0" y1="14.85" x2="51.44" y2="14.85" xlink:href="#Áåçûìÿííûé_ãðàäèåíò_55"/></defs><g class="cls-2"><g id="Calque_2" data-name="Calque 2"><g id="Ñëîé_1" data-name="Ñëîé 1"><path class="cls-3" d="M120.23,220.47a14.31,14.31,0,0,1-7-1.62L21.13,165.7c-1.85-1.07-2.86-2.55-2.86-4.18,0-2,1.46-3.91,4-5.38L197.86,54.76c4.77-2.75,12-3,16.17-.66l92.06,53.15c1.85,1.07,2.86,2.55,2.86,4.18,0,1.95-1.46,3.92-4,5.39L129.36,218.19A18.74,18.74,0,0,1,120.23,220.47Zm-6.84-2c4,2.33,11.11,2,15.77-.66L304.75,116.48c2.42-1.4,3.81-3.24,3.81-5,0-1.48-.95-2.84-2.67-3.83L213.83,54.45c-4-2.33-11.11-2-15.77.66L22.48,156.48c-2.43,1.4-3.82,3.24-3.82,5,0,1.48.95,2.84,2.67,3.84Z"/><path class="cls-4" d="M308.76,86.88l-13.23,2.28L213.93,42c-4.09-2.36-11.24-2.06-16,.67L41.85,132.84l-23.38,4v8.29h0c0,1.51.88,2.95,2.75,4l92.06,53.15c4.1,2.37,11.25,2.07,16-.66L304.85,100.3c2.54-1.47,3.85-3.34,3.89-5.13h0Z"/><path class="cls-5" d="M113.29,194,21.23,140.84c-4.09-2.37-3.58-6.49,1.15-9.22L198,30.24c4.73-2.72,11.88-3,16-.66L306,82.74c4.1,2.36,3.58,6.49-1.14,9.22L129.26,193.33C124.54,196.06,117.39,196.35,113.29,194Z"/><path class="cls-6" d="M304.85,92,129.26,193.33c-4.72,2.73-11.87,3-16,.66L21.23,140.84a5,5,0,0,1-2.71-3.49c-.26,1.7.62,3.36,2.71,4.56l92.06,53.16c4.1,2.36,11.25,2.06,16-.67L304.85,93c2.83-1.63,4.13-3.77,3.86-5.73C308.46,88.94,307.16,90.62,304.85,92Z"/><path class="cls-7" d="M113.47,191.93,24.69,140.66c-4-2.29-3.46-6.28,1.11-8.92L198.13,32.27c4.57-2.64,11.49-2.93,15.45-.64L302.36,82.9c4,2.29,3.47,6.28-1.11,8.92L128.93,191.29C124.35,193.93,117.44,194.22,113.47,191.93Z"/><path class="cls-8" d="M120.18,191.46a14,14,0,0,1-6.85-1.57L24.55,138.62a4.9,4.9,0,0,1-2.82-4.13c0-1.92,1.43-3.85,3.93-5.29L198,29.73c4.65-2.68,11.71-3,15.74-.64l88.79,51.27a4.9,4.9,0,0,1,2.81,4.13c0,1.92-1.43,3.85-3.92,5.29L129.07,189.25A18.31,18.31,0,0,1,120.18,191.46Zm-6.56-2.07c3.87,2.24,10.68,2,15.17-.64L301.11,89.29c2.31-1.34,3.64-3.09,3.64-4.8a4.35,4.35,0,0,0-2.53-3.63L213.44,29.59c-3.88-2.24-10.68-1.95-15.17.64L26,129.69c-2.32,1.34-3.65,3.09-3.65,4.8a4.34,4.34,0,0,0,2.54,3.63Z"/><g class="cls-9"><path class="cls-1" d="M113.47,189.64,24.69,138.37c-4-2.29-3.46-6.28,1.11-8.92L198.13,30c4.57-2.64,11.49-2.93,15.45-.64l88.78,51.27c4,2.29,3.47,6.29-1.11,8.93L128.93,189C124.35,191.64,117.44,191.93,113.47,189.64Z"/><g class="cls-10"><path class="cls-3" d="M59.19,134.32v64.9h0A4.48,4.48,0,0,0,61.81,203l53.93,31.14c3.88,2.24,10.66,2,15.14-.63h0c2.51-1.45,3.77-3.32,3.7-5.08h0V163.49Z"/><path class="cls-11" d="M115.74,169.21,61.81,138.07c-3.88-2.24-3.4-6.15,1.09-8.74h0c4.48-2.59,11.26-2.87,15.14-.63L132,159.84c3.88,2.24,3.39,6.15-1.09,8.74h0C126.4,171.17,119.62,171.45,115.74,169.21Z"/></g></g><path class="cls-12" d="M115.74,169.21,61.81,138.07c-3.88-2.24-3.4-6.15,1.09-8.74h0c4.48-2.59,11.26-2.87,15.14-.63L132,159.84c3.88,2.24,3.39,6.15-1.09,8.74h0C126.4,171.17,119.62,171.45,115.74,169.21Z"/><path class="cls-3" d="M59.19,57.56v64.9h0a4.5,4.5,0,0,0,2.61,3.76l53.93,31.13c3.88,2.24,10.66,2,15.14-.63h0c2.51-1.45,3.77-3.32,3.7-5.07h0V86.73Z"/><path class="cls-11" d="M115.74,92.45,61.81,61.32c-3.88-2.25-3.4-6.16,1.09-8.75h0C67.38,50,74.16,49.7,78,51.94L132,83.08c3.88,2.24,3.39,6.15-1.09,8.74h0C126.4,94.41,119.62,94.69,115.74,92.45Z"/><path class="cls-3" d="M121.12,88.28a4.66,4.66,0,0,1-4.66-4.66V54.78c0-9.84-7.2-22.3-15.71-27.22L88.37,20.42c-3.27-1.89-6.22-2.35-8.1-1.26s-3,3.87-3,7.64V55.64a4.66,4.66,0,1,1-9.32,0V26.8c0-7.3,2.7-12.88,7.61-15.72S86.71,8.7,93,12.35l12.38,7.14c11.42,6.6,20.37,22.1,20.37,35.29V83.62A4.66,4.66,0,0,1,121.12,88.28Z"/><path class="cls-12" d="M203.12,125l-61.49-35.5c-4.18-2.41-3.66-6.64,1.18-9.43h0c4.83-2.79,12.15-3.09,16.33-.68l61.48,35.5c4.19,2.42,3.67,6.64-1.17,9.43h0C214.62,127.15,207.3,127.46,203.12,125Z"/><path class="cls-13" d="M203.12,120.64l-61.49-35.5c-4.18-2.42-3.66-6.64,1.18-9.43h0c4.83-2.79,12.15-3.09,16.33-.68l61.48,35.5c4.19,2.42,3.67,6.64-1.17,9.43h0C214.62,122.75,207.3,123.06,203.12,120.64Z"/><path class="cls-3" d="M210.21,122.46a14.64,14.64,0,0,1-7.19-1.65l-61.49-35.5c-1.88-1.09-2.92-2.6-2.92-4.26,0-2,1.49-4,4.1-5.51,4.88-2.82,12.3-3.13,16.53-.68l61.48,35.5c1.89,1.09,2.93,2.6,2.93,4.27,0,2-1.5,4-4.1,5.5A19.2,19.2,0,0,1,210.21,122.46Zm-7-2c4.13,2.38,11.37,2.08,16.14-.68,2.48-1.43,3.9-3.31,3.9-5.16,0-1.52-1-2.91-2.72-3.93L159,75.2c-4.12-2.38-11.36-2.07-16.13.68-2.48,1.43-3.9,3.32-3.9,5.17,0,1.51,1,2.9,2.72,3.92Z"/><path class="cls-13" d="M214.3,117.31a5.74,5.74,0,0,1-5.2,0c-1.44-.83-1.44-2.18,0-3a5.74,5.74,0,0,1,5.2,0C215.73,115.13,215.73,116.48,214.3,117.31Z"/><path class="cls-3" d="M211.7,118.06a5.51,5.51,0,0,1-2.67-.63,2,2,0,0,1-1.15-1.62,2,2,0,0,1,1.15-1.62,5.91,5.91,0,0,1,5.34,0,1.94,1.94,0,0,1,1.14,1.62,2,2,0,0,1-1.14,1.62A5.51,5.51,0,0,1,211.7,118.06Zm0-4.24a5.09,5.09,0,0,0-2.53.61,1.69,1.69,0,0,0-1,1.38,1.71,1.71,0,0,0,1,1.38,5.63,5.63,0,0,0,5.06,0,1.71,1.71,0,0,0,1-1.38,1.69,1.69,0,0,0-1-1.38A5.12,5.12,0,0,0,211.7,113.82Z"/><path class="cls-13" d="M205.66,112.27a5.74,5.74,0,0,1-5.2,0c-1.43-.82-1.43-2.17,0-3a5.74,5.74,0,0,1,5.2,0C207.1,110.1,207.1,111.45,205.66,112.27Z"/><path class="cls-3" d="M203.06,111.38a5.54,5.54,0,0,1-2.67-.63,1.73,1.73,0,0,1,0-3.25,6,6,0,0,1,5.34,0,1.72,1.72,0,0,1,0,3.25h0A5.51,5.51,0,0,1,203.06,111.38Zm0-4.24a5.23,5.23,0,0,0-2.53.6,1.46,1.46,0,0,0,0,2.77,5.63,5.63,0,0,0,5.06,0h0a1.45,1.45,0,0,0,0-2.77A5.2,5.2,0,0,0,203.06,107.14Z"/><path class="cls-3" d="M180.59,93.19a5.41,5.41,0,0,1-2.67-.64,1.94,1.94,0,0,1-1.14-1.62,2,2,0,0,1,1.14-1.62,5.91,5.91,0,0,1,5.34,0,2,2,0,0,1,1.15,1.62,2,2,0,0,1-1.15,1.62h0A5.41,5.41,0,0,1,180.59,93.19Zm0-4.24a5.2,5.2,0,0,0-2.53.6,1.71,1.71,0,0,0-1,1.38,1.69,1.69,0,0,0,1,1.38,5.57,5.57,0,0,0,5.06,0h0a1.69,1.69,0,0,0,1-1.38,1.71,1.71,0,0,0-1-1.38A5.2,5.2,0,0,0,180.59,89Z"/><path class="cls-13" d="M183.19,99.72a5.74,5.74,0,0,1-5.2,0c-1.43-.83-1.43-2.17,0-3a5.74,5.74,0,0,1,5.2,0C184.63,97.55,184.63,98.89,183.19,99.72Z"/><path class="cls-3" d="M172,83.89a5.37,5.37,0,0,1-2.66-.64,2,2,0,0,1-1.15-1.62A2,2,0,0,1,169.29,80a5.89,5.89,0,0,1,5.33,0,2,2,0,0,1,1.15,1.62,2,2,0,0,1-1.15,1.62A5.38,5.38,0,0,1,172,83.89Zm0-4.24a5.23,5.23,0,0,0-2.53.6,1.72,1.72,0,0,0-1,1.38,1.69,1.69,0,0,0,1,1.38,5.57,5.57,0,0,0,5.06,0h0a1.69,1.69,0,0,0,1-1.38,1.71,1.71,0,0,0-1-1.38A5.17,5.17,0,0,0,172,79.65Z"/><path class="cls-13" d="M174.55,95.1a5.72,5.72,0,0,1-5.19,0c-1.44-.83-1.44-2.17,0-3a5.72,5.72,0,0,1,5.19,0C176,92.93,176,94.27,174.55,95.1Z"/><path class="cls-3" d="M163.32,72.58a5.41,5.41,0,0,1-2.67-.64,1.72,1.72,0,0,1,0-3.24,5.91,5.91,0,0,1,5.34,0,2,2,0,0,1,1.14,1.62A1.94,1.94,0,0,1,166,71.94h0A5.44,5.44,0,0,1,163.32,72.58Zm0-4.24a5.2,5.2,0,0,0-2.53.6,1.71,1.71,0,0,0-1,1.38,1.69,1.69,0,0,0,1,1.38,5.57,5.57,0,0,0,5.06,0h0a1.69,1.69,0,0,0,1-1.38,1.73,1.73,0,0,0-1-1.38A5.23,5.23,0,0,0,163.32,68.34Z"/><path class="cls-13" d="M165.77,90.31a5.74,5.74,0,0,1-5.2,0c-1.44-.83-1.44-2.17,0-3a5.74,5.74,0,0,1,5.2,0C167.2,88.14,167.2,89.48,165.77,90.31Z"/><path class="cls-13" d="M190.53,100.82l7.52,4.35c1.24.71,1.09,2-.35,2.8h0a5.44,5.44,0,0,1-4.85.2l-7.52-4.34c-1.24-.72-1.08-2,.35-2.8h0A5.41,5.41,0,0,1,190.53,100.82Z"/><path class="cls-3" d="M195,105.28a4.39,4.39,0,0,1-2.18-.5l-7.52-4.34a1.57,1.57,0,0,1-.9-1.33,2.11,2.11,0,0,1,1.25-1.71,5.55,5.55,0,0,1,5-.2l7.52,4.34a1.61,1.61,0,0,1,.91,1.34,2.13,2.13,0,0,1-1.26,1.7A5.69,5.69,0,0,1,195,105.28ZM188.43,97a5.54,5.54,0,0,0-2.68.66,1.89,1.89,0,0,0-1.12,1.47,1.31,1.31,0,0,0,.77,1.09l7.52,4.34a5.21,5.21,0,0,0,4.71-.2,1.88,1.88,0,0,0,1.12-1.46,1.32,1.32,0,0,0-.77-1.1l-7.52-4.34A4.17,4.17,0,0,0,188.43,97Z"/><path class="cls-12" d="M283.4,89.12a5.38,5.38,0,0,1-4.91,0c-1.35-.78-1.35-2.05,0-2.83a5.44,5.44,0,0,1,4.91,0C284.76,87.07,284.76,88.34,283.4,89.12Z"/><path class="cls-12" d="M264.67,75.48,274.28,81c1.17.68,1,1.86-.33,2.65h0a5.12,5.12,0,0,1-4.58.19l-9.61-5.55c-1.17-.68-1-1.86.33-2.64h0A5.06,5.06,0,0,1,264.67,75.48Z"/><path class="cls-12" d="M210.68,43.64l9.61,5.55c1.17.68,1,1.86-.33,2.64h0a5.09,5.09,0,0,1-4.58.19l-9.6-5.54c-1.18-.68-1-1.87.32-2.65h0A5.09,5.09,0,0,1,210.68,43.64Z"/><path class="cls-3" d="M283.4,85.68a5.44,5.44,0,0,1-4.91,0c-1.35-.78-1.35-2.05,0-2.83a5.38,5.38,0,0,1,4.91,0C284.76,83.63,284.76,84.9,283.4,85.68Z"/><path class="cls-3" d="M264.67,72l9.61,5.55c1.17.68,1,1.86-.33,2.64h0a5.09,5.09,0,0,1-4.58.19l-9.61-5.55c-1.17-.67-1-1.86.33-2.64h0A5.09,5.09,0,0,1,264.67,72Z"/><path class="cls-3" d="M210.68,40.2l9.61,5.54c1.17.68,1,1.87-.33,2.65h0a5.09,5.09,0,0,1-4.58.19L205.78,43c-1.18-.68-1-1.86.32-2.64h0A5.09,5.09,0,0,1,210.68,40.2Z"/><g class="cls-9"><path class="cls-14" d="M337.24,206.76v-4.48l-1.24-.69c-.35,2.12-2.84,3.51-4.92,3.8l-14.18,8.29-6.18,2.23L291,205.72l.46-.26c-1.69-.79-2.6-2.59-3.51-4.24l-1.33.8-.79.22v4.59h0a3,3,0,0,0,1.74,2.43l19.78,11.42a9.28,9.28,0,0,0,8.4,0l19.78-11.42a3,3,0,0,0,1.74-2.38.49.49,0,0,0,0-.12Z"/><path class="cls-15" d="M331.08,205.39l-14.18,8.29-5.38,1.94v6.06a8.58,8.58,0,0,0,4.2-1l19.78-11.42a3,3,0,0,0,1.74-2.38.49.49,0,0,0,0-.12h0v-4.48l-1.14-.63H336C335.6,203.73,333.14,205.1,331.08,205.39Z"/><path class="cls-16" d="M307.32,216.13l-19.78-11.42c-2.32-1.34-2.32-3.52,0-4.85l19.78-11.42a9.28,9.28,0,0,1,8.4,0l19.78,11.42c2.32,1.33,2.32,3.51,0,4.85l-19.78,11.42A9.34,9.34,0,0,1,307.32,216.13Z"/><g class="cls-9"><path class="cls-17" d="M307.32,216.13l-19.78-11.42c-2.32-1.34-2.32-3.52,0-4.85l19.78-11.42a9.28,9.28,0,0,1,8.4,0l19.78,11.42c2.32,1.33,2.32,3.51,0,4.85l-19.78,11.42A9.34,9.34,0,0,1,307.32,216.13Z"/></g></g><path class="cls-3" d="M311.52,201.69a7.57,7.57,0,0,1-3.73-.89L288,189.38a2.39,2.39,0,0,1,0-4.5l19.78-11.42a8.24,8.24,0,0,1,7.46,0L335,184.88a2.39,2.39,0,0,1,0,4.5L315.25,200.8A7.57,7.57,0,0,1,311.52,201.69Zm0-28.78a7.24,7.24,0,0,0-3.56.85l-19.78,11.42a2,2,0,0,0,0,3.9L308,200.5a7.86,7.86,0,0,0,7.1,0l19.79-11.42a2.05,2.05,0,0,0,0-3.9l-19.78-11.42A7.2,7.2,0,0,0,311.52,172.91Z"/><path class="cls-13" d="M337.24,182.75V176l-1.24-.69c-.35,2.12-2.84,3.51-4.92,3.8l-14.18,8.29-6.18,2.23L291,179.41l.46-.26c-1.69-.79-2.6-2.59-3.51-4.24l-1.33.8-.79.22v6.89h0a2.94,2.94,0,0,0,1.74,2.42l19.78,11.42a9.28,9.28,0,0,0,8.4,0l19.78-11.42a3,3,0,0,0,1.74-2.38.49.49,0,0,0,0-.12Z"/><path class="cls-18" d="M337.24,176.72v-4.48l-1.24-.69c-.35,2.12-2.84,3.51-4.92,3.8l-14.18,8.29-6.18,2.23L291,175.69l.46-.27c-1.69-.79-2.6-2.59-3.51-4.23l-1.33.79-.79.22v4.6h0a3,3,0,0,0,1.74,2.42l19.78,11.42a9.28,9.28,0,0,0,8.4,0l19.78-11.42a3,3,0,0,0,1.74-2.38.49.49,0,0,0,0-.12Z"/><path class="cls-15" d="M331.08,175.35l-14.18,8.29-5.38,1.94v6.06a8.58,8.58,0,0,0,4.2-1l19.78-11.42a3,3,0,0,0,1.74-2.38.49.49,0,0,0,0-.12h0v-4.48l-1.14-.63H336C335.6,173.69,333.14,175.07,331.08,175.35Z"/><path class="cls-19" d="M307.32,186.09l-19.78-11.42c-2.32-1.34-2.32-3.52,0-4.85l19.78-11.42a9.28,9.28,0,0,1,8.4,0l19.78,11.42c2.32,1.34,2.32,3.51,0,4.85l-19.78,11.42A9.28,9.28,0,0,1,307.32,186.09Z"/><path class="cls-6" d="M335.5,174.67l-19.78,11.42a9.28,9.28,0,0,1-8.4,0l-19.78-11.42a3.13,3.13,0,0,1-1.72-2.15,2.82,2.82,0,0,0,1.72,2.71l19.78,11.42a9.34,9.34,0,0,0,8.4,0l19.78-11.42a2.82,2.82,0,0,0,1.72-2.71A3.11,3.11,0,0,1,335.5,174.67Z"/><g class="cls-9"><path class="cls-20" d="M249.17,233.41v-4.48l-1.24-.69c-.35,2.12-2.84,3.51-4.92,3.8l-14.18,8.29-6.18,2.23L202.9,232.38l.46-.27c-1.69-.79-2.6-2.59-3.51-4.23l-1.33.79-.79.22v4.6h0a3,3,0,0,0,1.74,2.42l19.78,11.42a9.28,9.28,0,0,0,8.4,0l19.78-11.42a3,3,0,0,0,1.74-2.38v-.12Z"/><path class="cls-15" d="M243,232l-14.18,8.29-5.38,1.94v6.06a8.58,8.58,0,0,0,4.2-1l19.78-11.42a3,3,0,0,0,1.74-2.38v-.12h0v-4.48L248,228.3h-.12C247.53,230.38,245.07,231.76,243,232Z"/><path class="cls-21" d="M219.25,242.78l-19.78-11.42c-2.32-1.34-2.32-3.51,0-4.85l19.78-11.42a9.28,9.28,0,0,1,8.4,0l19.78,11.42c2.32,1.34,2.32,3.51,0,4.85l-19.78,11.42A9.28,9.28,0,0,1,219.25,242.78Z"/><g class="cls-9"><path class="cls-17" d="M219.25,242.78l-19.78-11.42c-2.32-1.34-2.32-3.51,0-4.85l19.78-11.42a9.28,9.28,0,0,1,8.4,0l19.78,11.42c2.32,1.34,2.32,3.51,0,4.85l-19.78,11.42A9.28,9.28,0,0,1,219.25,242.78Z"/></g></g><path class="cls-3" d="M223.45,226.16a7.57,7.57,0,0,1-3.73-.89l-19.78-11.42a2.39,2.39,0,0,1,0-4.5l19.78-11.42a8.24,8.24,0,0,1,7.46,0L247,209.35a2.39,2.39,0,0,1,0,4.5l-19.78,11.42A7.57,7.57,0,0,1,223.45,226.16ZM219.9,225a7.82,7.82,0,0,0,7.11,0l19.78-11.42a2,2,0,0,0,0-3.9L227,198.23a7.88,7.88,0,0,0-7.11,0l-19.79,11.42a2.05,2.05,0,0,0,0,3.9Z"/><path class="cls-13" d="M249.17,207.22v-6.78l-1.24-.69c-.35,2.12-2.84,3.51-4.92,3.8l-14.18,8.29-6.18,2.24L202.9,203.89l.46-.27c-1.69-.79-2.6-2.59-3.51-4.23l-1.33.79-.79.22v6.89h0a2.93,2.93,0,0,0,1.74,2.42l19.78,11.42a9.28,9.28,0,0,0,8.4,0l19.78-11.42a3,3,0,0,0,1.74-2.38v-.11Z"/><path class="cls-22" d="M249.17,201.2v-4.48l-1.24-.69c-.35,2.11-2.84,3.5-4.92,3.79l-14.18,8.29-6.18,2.24L202.9,200.16l.46-.27c-1.69-.78-2.6-2.59-3.51-4.23l-1.33.79-.79.22v4.6h0a2.94,2.94,0,0,0,1.74,2.42l19.78,11.42a9.28,9.28,0,0,0,8.4,0l19.78-11.42a3,3,0,0,0,1.74-2.38v-.11Z"/><path class="cls-15" d="M243,199.82l-14.18,8.29-5.38,1.95v6.06a8.58,8.58,0,0,0,4.2-1l19.78-11.42a3,3,0,0,0,1.74-2.38v-.11h0v-4.48l-1.13-.64h-.12C247.53,198.17,245.07,199.54,243,199.82Z"/><path class="cls-23" d="M219.25,210.56l-19.78-11.42c-2.32-1.34-2.32-3.51,0-4.85l19.78-11.42a9.28,9.28,0,0,1,8.4,0l19.78,11.42c2.32,1.34,2.32,3.51,0,4.85l-19.78,11.42A9.28,9.28,0,0,1,219.25,210.56Z"/><path class="cls-24" d="M223.45,208.49a6.86,6.86,0,0,1-3.37-.81l-15.45-8.92a2.17,2.17,0,0,1,0-4.09l15.45-8.92a7.48,7.48,0,0,1,6.74,0l15.45,8.92a2.17,2.17,0,0,1,0,4.09l-15.45,8.92A6.86,6.86,0,0,1,223.45,208.49Zm0-23.21a6.49,6.49,0,0,0-3.19.77L204.8,195a1.83,1.83,0,0,0,0,3.49l15.46,8.92a7.05,7.05,0,0,0,6.39,0l15.45-8.92a1.83,1.83,0,0,0,0-3.49l-15.45-8.92A6.56,6.56,0,0,0,223.45,185.28Z"/><path class="cls-6" d="M247.43,199.14l-19.78,11.42a9.28,9.28,0,0,1-8.4,0l-19.78-11.42a3.11,3.11,0,0,1-1.72-2.15,2.82,2.82,0,0,0,1.72,2.71l19.78,11.42a9.28,9.28,0,0,0,8.4,0l19.78-11.42a2.82,2.82,0,0,0,1.72-2.71A3.11,3.11,0,0,1,247.43,199.14Z"/><g class="cls-9"><path class="cls-25" d="M51.44,49.33V44.85l-1.24-.69c-.35,2.11-2.84,3.51-4.92,3.8L31.1,56.25l-6.18,2.23L5.17,48.29,5.63,48c-1.69-.79-2.6-2.59-3.51-4.24l-1.33.79L0,44.81V49.4H0a3,3,0,0,0,1.74,2.43L21.52,63.25a9.34,9.34,0,0,0,8.4,0L49.7,51.83a3,3,0,0,0,1.74-2.39s0-.07,0-.11Z"/><path class="cls-15" d="M45.28,48,31.1,56.25l-5.38,1.94v6.06a8.58,8.58,0,0,0,4.2-1L49.7,51.83a3,3,0,0,0,1.74-2.39s0-.07,0-.11h0V44.85l-1.14-.63h-.12C49.8,46.3,47.34,47.67,45.28,48Z"/><path class="cls-26" d="M21.52,58.69,1.74,47.27c-2.32-1.33-2.32-3.51,0-4.85L21.52,31a9.34,9.34,0,0,1,8.4,0L49.7,42.42c2.31,1.34,2.31,3.52,0,4.85L29.92,58.69A9.28,9.28,0,0,1,21.52,58.69Z"/><g class="cls-9"><path class="cls-17" d="M21.52,58.69,1.74,47.27c-2.32-1.33-2.32-3.51,0-4.85L21.52,31a9.34,9.34,0,0,1,8.4,0L49.7,42.42c2.31,1.34,2.31,3.52,0,4.85L29.92,58.69A9.28,9.28,0,0,1,21.52,58.69Z"/></g></g><path class="cls-3" d="M25.72,44.3A7.68,7.68,0,0,1,22,43.41L2.21,32A2.73,2.73,0,0,1,.62,29.73a2.7,2.7,0,0,1,1.59-2.25L22,16.06a8.24,8.24,0,0,1,7.46,0L49.23,27.48a2.72,2.72,0,0,1,1.59,2.25A2.75,2.75,0,0,1,49.23,32L29.45,43.41A7.68,7.68,0,0,1,25.72,44.3Zm0-28.79a7.35,7.35,0,0,0-3.56.85L2.38,27.78A2.41,2.41,0,0,0,1,29.73a2.42,2.42,0,0,0,1.42,2L22.16,43.11a7.88,7.88,0,0,0,7.11,0L49.05,31.69a2.4,2.4,0,0,0,1.42-2,2.39,2.39,0,0,0-1.42-1.95L29.27,16.36A7.34,7.34,0,0,0,25.72,15.51Z"/><path class="cls-13" d="M51.44,25.35V18.58l-1.24-.69c-.35,2.11-2.84,3.51-4.92,3.8L31.1,30l-6.18,2.24L5.17,22l.46-.26C3.94,21,3,19.16,2.12,17.52l-1.33.79L0,18.53v6.89H0a3,3,0,0,0,1.74,2.43L21.52,39.27a9.34,9.34,0,0,0,8.4,0L49.7,27.85a3,3,0,0,0,1.74-2.38s0-.08,0-.12Z"/><path class="cls-27" d="M51.44,19.33V14.85l-1.24-.69c-.35,2.11-2.84,3.51-4.92,3.8L31.1,26.25l-6.18,2.23L5.17,18.29,5.63,18c-1.69-.79-2.6-2.59-3.51-4.24l-1.33.79L0,14.81V19.4H0a3,3,0,0,0,1.74,2.43L21.52,33.25a9.34,9.34,0,0,0,8.4,0L49.7,21.83a3,3,0,0,0,1.74-2.39s0-.07,0-.11Z"/><path class="cls-15" d="M45.28,18,31.1,26.25l-5.38,1.94v6.06a8.58,8.58,0,0,0,4.2-1L49.7,21.83a3,3,0,0,0,1.74-2.39s0-.07,0-.11h0V14.85l-1.14-.63h-.12C49.8,16.3,47.34,17.67,45.28,18Z"/><path class="cls-28" d="M21.52,28.69,1.74,17.27c-2.32-1.33-2.32-3.51,0-4.85L21.52,1a9.34,9.34,0,0,1,8.4,0L49.7,12.42c2.31,1.34,2.31,3.52,0,4.85L29.92,28.69A9.28,9.28,0,0,1,21.52,28.69Z"/><path class="cls-24" d="M25.72,26.62a7,7,0,0,1-3.37-.8h0L6.9,16.89a2.44,2.44,0,0,1-1.45-2,2.49,2.49,0,0,1,1.45-2L22.35,3.88a7.48,7.48,0,0,1,6.74,0L44.54,12.8a2.48,2.48,0,0,1,1.44,2,2.45,2.45,0,0,1-1.44,2L29.09,25.82A7,7,0,0,1,25.72,26.62Zm0-23.2a6.53,6.53,0,0,0-3.2.76L7.07,13.1A2.16,2.16,0,0,0,5.8,14.85a2.13,2.13,0,0,0,1.27,1.74l15.45,8.92a7.05,7.05,0,0,0,6.39,0l15.46-8.92a2.13,2.13,0,0,0,1.27-1.74,2.16,2.16,0,0,0-1.27-1.75L28.91,4.18A6.51,6.51,0,0,0,25.72,3.42Z"/><path class="cls-6" d="M49.7,17.27,29.92,28.69a9.28,9.28,0,0,1-8.4,0L1.74,17.27A3.1,3.1,0,0,1,0,15.13a2.81,2.81,0,0,0,1.72,2.7L21.52,29.25a9.28,9.28,0,0,0,8.4,0L49.7,17.83a2.78,2.78,0,0,0,1.71-2.7A3.11,3.11,0,0,1,49.7,17.27Z"/></g></g></g></svg>