<svg width="122" height="153" viewBox="0 0 122 153" fill="none" xmlns="http://www.w3.org/2000/svg">
<g opacity="0.3">
<path opacity="0.3" d="M122 116.905V106.333L119.073 104.705C118.247 109.707 112.37 112.987 107.46 113.672L73.9907 133.234L59.4038 138.496L12.8579 114.451L13.9437 113.837C9.95471 111.973 7.80685 107.725 5.65895 103.832L2.51966 105.719L0.654968 106.239V117.07C0.778521 118.301 1.22279 119.479 1.9434 120.485C2.66402 121.491 3.63586 122.29 4.76201 122.804L51.4495 149.753C54.5215 151.311 57.9179 152.124 61.3629 152.124C64.8079 152.124 68.2043 151.311 71.2763 149.753L117.964 122.804C119.074 122.301 120.035 121.519 120.755 120.535C121.474 119.551 121.928 118.398 122.071 117.188C122.082 117.094 122.082 116.999 122.071 116.905H122Z" fill="url(#paint0_linear_83_222)"/>
<path opacity="0.3" d="M107.46 113.672L73.9906 133.234L61.292 137.812V152.112C64.7436 152.183 68.1562 151.371 71.2054 149.753L117.893 122.804C119.003 122.301 119.965 121.519 120.684 120.535C121.404 119.551 121.857 118.398 122 117.188C122.011 117.094 122.011 116.999 122 116.905V106.333L119.309 104.846H119.073C118.129 109.755 112.322 112.987 107.46 113.672Z" fill="#0F054C"/>
<path opacity="0.3" d="M51.3787 139.016L4.69122 112.067C-0.784767 108.905 -0.784767 103.761 4.69122 100.622L51.3787 73.6738C54.4507 72.115 57.847 71.3026 61.292 71.3026C64.7371 71.3026 68.1335 72.115 71.2055 73.6738L117.893 100.622C123.369 103.761 123.369 108.905 117.893 112.067L71.2055 139.016C68.1302 140.564 64.7351 141.37 61.292 141.37C57.849 141.37 54.4539 140.564 51.3787 139.016Z" fill="url(#paint1_linear_83_222)"/>
<g opacity="0.3">
<path opacity="0.3" d="M51.3787 139.016L4.69122 112.067C-0.784767 108.905 -0.784767 103.761 4.69122 100.622L51.3787 73.6738C54.4507 72.115 57.847 71.3026 61.292 71.3026C64.7371 71.3026 68.1335 72.115 71.2055 73.6738L117.893 100.622C123.369 103.761 123.369 108.905 117.893 112.067L71.2055 139.016C68.1302 140.564 64.7351 141.37 61.292 141.37C57.849 141.37 54.4539 140.564 51.3787 139.016Z" fill="#0F054C"/>
</g>
</g>
<path d="M61.292 104.941C58.2257 105.008 55.1937 104.284 52.488 102.84L5.7769 75.892C4.68241 75.5 3.73581 74.7795 3.06656 73.8291C2.3973 72.8787 2.03809 71.7448 2.03809 70.5825C2.03809 69.4202 2.3973 68.2862 3.06656 67.3358C3.73581 66.3854 4.68241 65.665 5.7769 65.273L52.4644 38.3245C55.1925 36.9399 58.2089 36.2183 61.2684 36.2183C64.328 36.2183 67.3443 36.9399 70.0724 38.3245L116.713 65.273C117.807 65.665 118.754 66.3854 119.423 67.3358C120.092 68.2862 120.452 69.4202 120.452 70.5825C120.452 71.7448 120.092 72.8787 119.423 73.8291C118.754 74.7795 117.807 75.5 116.713 75.892L70.0961 102.84C67.3903 104.284 64.3583 105.008 61.292 104.941ZM61.292 37.0267C58.3655 36.9647 55.4721 37.6554 52.8892 39.0324L6.20174 65.9809C5.15879 66.2186 4.22749 66.8033 3.56041 67.6393C2.89333 68.4753 2.53006 69.5131 2.53006 70.5825C2.53006 71.6519 2.89333 72.6896 3.56041 73.5257C4.22749 74.3617 5.15879 74.9464 6.20174 75.184L52.9836 102.133C55.5811 103.447 58.4515 104.132 61.3628 104.132C64.2741 104.132 67.1446 103.447 69.742 102.133L116.453 75.184C117.426 74.8687 118.273 74.2536 118.874 73.427C119.475 72.6003 119.799 71.6045 119.799 70.5825C119.799 69.5605 119.475 68.5647 118.874 67.738C118.273 66.9114 117.426 66.2962 116.453 65.9809L69.7656 39.0324C67.1632 37.6394 64.2428 36.9482 61.292 37.0267Z" fill="#42E8E0"/>
<path opacity="0.4" d="M122 60.2467V44.3183L119.073 42.6901C118.247 47.6928 112.37 50.9729 107.46 51.6572L73.9907 71.2196L59.4039 76.4819L12.858 52.3651L13.9437 51.7516C9.95477 49.8874 7.80691 45.6398 5.65901 41.7462L2.51972 43.634L0.655029 44.1531V60.4119C0.768394 61.6434 1.20898 62.8221 1.93107 63.8261C2.65316 64.8302 3.63055 65.623 4.76207 66.1226L51.4495 93.0711C54.5215 94.6298 57.9179 95.4422 61.3629 95.4422C64.8079 95.4422 68.2044 94.6298 71.2764 93.0711L117.964 66.1226C119.074 65.6191 120.036 64.8375 120.755 63.8536C121.475 62.8697 121.928 61.7167 122.071 60.5063C122.082 60.4123 122.082 60.3172 122.071 60.2232L122 60.2467Z" fill="#42E8E0"/>
<path d="M122 46.0174V35.4457L119.073 33.8174C118.247 38.8201 112.37 42.1002 107.46 42.7845L73.9907 62.347L59.4039 67.6092L12.858 43.5868L13.9437 42.9497C9.95477 41.0855 7.80691 36.8379 5.65901 32.9679L2.51972 34.8321L0.655029 35.3512V46.2062C0.782522 47.4333 1.22862 48.6058 1.94901 49.6075C2.6694 50.6092 3.63913 51.4052 4.76207 51.9168L51.4495 78.8653C54.5215 80.4241 57.9179 81.2365 61.3629 81.2365C64.8079 81.2365 68.2044 80.4241 71.2764 78.8653L117.964 51.9168C119.074 51.4133 120.036 50.6318 120.755 49.6478C121.475 48.6639 121.928 47.511 122.071 46.3005C122.082 46.2065 122.082 46.1114 122.071 46.0174H122Z" fill="url(#paint2_linear_83_222)"/>
<path opacity="0.3" d="M107.46 42.7845L73.9906 62.3469L61.292 66.9249V81.2251C64.7436 81.2961 68.1562 80.4838 71.2054 78.8653L117.893 51.9168C119.003 51.4133 119.965 50.6318 120.684 49.6478C121.404 48.6639 121.857 47.5109 122 46.3005C122.011 46.2065 122.011 46.1114 122 46.0174V35.4456L119.309 33.959H119.073C118.129 38.8673 112.322 42.1238 107.46 42.7845Z" fill="#0F054C"/>
<path d="M51.3787 68.1283L4.69122 41.1798C-0.784767 38.0178 -0.784767 32.8735 4.69122 29.735L51.3787 2.78649C54.4507 1.2277 57.847 0.415344 61.292 0.415344C64.7371 0.415344 68.1335 1.2277 71.2055 2.78649L117.893 29.735C123.369 32.8971 123.369 38.0178 117.893 41.1798L71.2055 68.1283C68.1335 69.6871 64.7371 70.4995 61.292 70.4995C57.847 70.4995 54.4507 69.6871 51.3787 68.1283Z" fill="url(#paint3_linear_83_222)"/>
<path d="M117.893 41.1798L71.2055 68.1283C68.1335 69.6871 64.737 70.4995 61.292 70.4995C57.847 70.4995 54.4506 69.6871 51.3786 68.1283L4.69118 41.1798C3.6724 40.6995 2.77697 39.9927 2.07333 39.1133C1.36969 38.234 0.876465 37.2054 0.631393 36.1063C0.577423 37.4585 0.937106 38.795 1.66246 39.9376C2.38781 41.0802 3.44435 41.9745 4.69118 42.5013L51.3786 69.4498C54.4539 70.9976 57.849 71.8039 61.292 71.8039C64.735 71.8039 68.1302 70.9976 71.2055 69.4498L117.893 42.5013C119.14 41.9745 120.196 41.0802 120.922 39.9376C121.647 38.795 122.007 37.4585 121.953 36.1063C121.711 37.2068 121.219 38.2369 120.515 39.1167C119.811 39.9965 118.914 40.7024 117.893 41.1798Z" fill="white"/>
<defs>
<linearGradient id="paint0_linear_83_222" x1="12.6691" y1="85.3074" x2="108.983" y2="140.947" gradientUnits="userSpaceOnUse">
<stop stop-color="#BCBEFF"/>
<stop offset="0.23" stop-color="#AAADF8"/>
<stop offset="0.68" stop-color="#7C83E5"/>
<stop offset="1" stop-color="#5761D7"/>
</linearGradient>
<linearGradient id="paint1_linear_83_222" x1="0.584229" y1="106.333" x2="122" y2="106.333" gradientUnits="userSpaceOnUse">
<stop stop-color="#E9E9FD"/>
<stop offset="0.36" stop-color="#D3D2F9"/>
<stop offset="0.71" stop-color="#C5C4F7"/>
<stop offset="1" stop-color="#C0BFF6"/>
</linearGradient>
<linearGradient id="paint2_linear_83_222" x1="35325.5" y1="7917.16" x2="37450.5" y2="11003.3" gradientUnits="userSpaceOnUse">
<stop stop-color="#BCBEFF"/>
<stop offset="0.23" stop-color="#AAADF8"/>
<stop offset="0.68" stop-color="#7C83E5"/>
<stop offset="1" stop-color="#5761D7"/>
</linearGradient>
<linearGradient id="paint3_linear_83_222" x1="34701.2" y1="12071.7" x2="40946.8" y2="12071.7" gradientUnits="userSpaceOnUse">
<stop stop-color="#E9E9FD"/>
<stop offset="0.36" stop-color="#D3D2F9"/>
<stop offset="0.71" stop-color="#C5C4F7"/>
<stop offset="1" stop-color="#C0BFF6"/>
</linearGradient>
</defs>
</svg>
