<svg width="122" height="152" viewBox="0 0 122 152" fill="none" xmlns="http://www.w3.org/2000/svg">
<g opacity="0.3">
<path opacity="0.3" d="M121.416 116.407V105.835L118.489 104.207C117.663 109.186 111.786 112.49 106.876 113.174L73.4065 132.737L58.8196 137.999L12.2029 113.953L13.2887 113.269C9.29973 111.404 7.15182 107.157 5.00391 103.263L1.86467 105.127L0 105.741V116.572C0.123553 117.804 0.567781 118.981 1.2884 119.987C2.00901 120.993 2.98084 121.793 4.10699 122.306L50.7945 149.255C53.8697 150.803 57.2649 151.609 60.7079 151.609C64.1509 151.609 67.546 150.803 70.6213 149.255L117.309 122.306C118.422 121.801 119.386 121.016 120.105 120.027C120.825 119.039 121.277 117.881 121.416 116.667C121.416 116.667 121.416 116.501 121.416 116.407Z" fill="url(#paint0_linear_83_224)"/>
<path opacity="0.3" d="M106.876 113.269L73.4065 132.737L60.7079 137.315V151.615C64.1595 151.686 67.572 150.873 70.6213 149.255L117.309 122.306C118.422 121.801 119.386 121.016 120.105 120.027C120.825 119.039 121.277 117.881 121.416 116.667C121.416 116.667 121.416 116.501 121.416 116.407V105.835L118.725 104.349H118.442C117.545 109.257 111.738 112.49 106.876 113.269Z" fill="#0F054C"/>
<path opacity="0.3" d="M50.7945 138.494L4.10699 111.546C-1.369 108.407 -1.369 103.263 4.10699 100.101L50.7945 73.1526C53.8697 71.6048 57.2649 70.7985 60.7079 70.7985C64.1509 70.7985 67.546 71.6048 70.6213 73.1526L117.309 100.101C122.761 103.263 122.761 108.407 117.309 111.546L70.6213 138.494C67.5493 140.053 64.1529 140.866 60.7079 140.866C57.2629 140.866 53.8664 140.053 50.7945 138.494Z" fill="url(#paint1_linear_83_224)"/>
<g opacity="0.3">
<path opacity="0.3" d="M50.7945 138.494L4.10699 111.546C-1.369 108.407 -1.369 103.263 4.10699 100.101L50.7945 73.1526C53.8697 71.6048 57.2649 70.7985 60.7079 70.7985C64.1509 70.7985 67.546 71.6048 70.6213 73.1526L117.309 100.101C122.761 103.263 122.761 108.407 117.309 111.546L70.6213 138.494C67.5493 140.053 64.1529 140.866 60.7079 140.866C57.2629 140.866 53.8664 140.053 50.7945 138.494Z" fill="#0F054C"/>
</g>
</g>
<path d="M60.7079 104.537C57.6507 104.589 54.6302 103.866 51.9274 102.437L5.21635 75.5124C4.16949 75.0357 3.26936 74.2875 2.60941 73.3456C1.94946 72.4036 1.55377 71.3022 1.46341 70.1557C1.55458 69.0154 1.95116 67.9206 2.61152 66.9864C3.27187 66.0522 4.17164 65.3129 5.21635 64.8463L51.9274 37.8978C54.6555 36.5131 57.6719 35.7915 60.7315 35.7915C63.791 35.7915 66.8074 36.5131 69.5355 37.8978L116.199 64.8463C117.241 65.317 118.138 66.0574 118.798 66.9908C119.458 67.9242 119.856 69.0168 119.952 70.1557C119.857 71.3008 119.46 72.4001 118.8 73.3413C118.141 74.2824 117.243 75.0316 116.199 75.5124L69.5119 102.437C66.8021 103.87 63.773 104.593 60.7079 104.537ZM60.7079 36.5999C57.7826 36.5494 54.892 37.2394 52.3051 38.6057L5.6176 65.5542C4.72147 65.972 3.94974 66.6161 3.37855 67.4231C2.80735 68.23 2.45641 69.1718 2.36034 70.1557C2.44772 71.1696 2.80451 72.1417 3.39378 72.9715C3.98306 73.8012 4.78341 74.4585 5.71202 74.8752L52.3051 101.729C54.9067 103.044 57.781 103.729 60.6961 103.729C63.6112 103.729 66.4855 103.044 69.0871 101.729L115.775 74.7809C116.706 74.3683 117.509 73.7121 118.099 72.8815C118.689 72.0509 119.044 71.0766 119.126 70.0613C119.026 69.0661 118.663 68.1154 118.074 67.3068C117.485 66.4982 116.691 65.8607 115.775 65.4598L69.0871 38.6057C66.5075 37.2423 63.6253 36.5524 60.7079 36.5999Z" fill="#42E8E0"/>
<path opacity="0.4" d="M121.416 59.82V43.8444L118.489 42.2161C117.663 47.1952 111.786 50.4989 106.876 51.1832L73.4065 70.7929L58.8196 76.0787L12.2029 51.9148L13.2887 51.3012C9.29973 49.555 7.08101 45.213 5.00391 41.343L1.86467 43.2072L0 43.7264V59.9851C0.123553 61.2164 0.567781 62.3938 1.2884 63.4C2.00901 64.4061 2.98084 65.2058 4.10699 65.7194L50.7945 92.6679C53.8697 94.2157 57.2649 95.022 60.7079 95.022C64.1509 95.022 67.546 94.2157 70.6213 92.6679L117.309 65.7194C118.419 65.2159 119.38 64.4344 120.1 63.4504C120.819 62.4665 121.273 61.3135 121.416 60.1031C121.416 60.1031 121.416 59.9144 121.416 59.82Z" fill="#42E8E0"/>
<path d="M121.416 45.6142V35.0425L118.489 33.4142C117.663 38.3933 111.786 41.697 106.876 42.3813L73.4065 61.9438L58.8196 67.206L12.2029 43.1601L13.2887 42.4757C9.29973 40.6115 7.15182 36.3639 5.00391 32.4703L1.86467 34.3345L0 34.9481V45.7794C0.123553 47.0107 0.567781 48.1881 1.2884 49.1942C2.00901 50.2004 2.98084 51.0001 4.10699 51.5136L50.7945 78.4621C53.8697 80.01 57.2649 80.8162 60.7079 80.8162C64.1509 80.8162 67.546 80.01 70.6213 78.4621L117.309 51.5136C118.422 51.0081 119.386 50.2229 120.105 49.2346C120.825 48.2462 121.277 47.0884 121.416 45.8738C121.416 45.8738 121.416 45.7086 121.416 45.6142Z" fill="url(#paint2_linear_83_224)"/>
<path opacity="0.3" d="M106.876 42.4758L73.4065 61.9438L60.7079 66.5217V80.8219C64.1595 80.893 67.572 80.0806 70.6213 78.4621L117.309 51.5136C118.422 51.0081 119.386 50.223 120.105 49.2346C120.825 48.2463 121.277 47.0884 121.416 45.8738C121.416 45.8738 121.416 45.7086 121.416 45.6142V35.0425L118.725 33.5558H118.442C117.545 38.4642 111.738 41.697 106.876 42.4758Z" fill="#0F054C"/>
<path d="M50.7945 67.7016L4.10699 40.7531C-1.369 37.6146 -1.369 32.4703 4.10699 29.3082L50.7945 2.35972C53.8697 0.811849 57.2649 0.00561523 60.7079 0.00561523C64.1509 0.00561523 67.546 0.811849 70.6213 2.35972L117.309 29.3082C122.761 32.4703 122.761 37.6146 117.309 40.7531L70.6213 67.7016C67.5493 69.2603 64.1529 70.0727 60.7079 70.0727C57.2629 70.0727 53.8664 69.2603 50.7945 67.7016Z" fill="url(#paint3_linear_83_224)"/>
<path d="M60.7079 62.8169C57.9401 62.8637 55.2049 62.2146 52.7535 60.9291L16.2863 39.8564C15.3474 39.4454 14.5352 38.7913 13.9335 37.9616C13.3319 37.132 12.9626 36.1568 12.8638 35.1369C12.9743 34.1205 13.3482 33.1505 13.9484 32.3228C14.5486 31.4951 15.3545 30.8383 16.2863 30.4173L52.7535 9.15586C55.2203 7.9113 57.9448 7.26294 60.7079 7.26294C63.4709 7.26294 66.1954 7.9113 68.6622 9.15586L105.129 30.2049C106.058 30.6272 106.861 31.2849 107.457 32.1127C108.053 32.9406 108.422 33.9099 108.528 34.9245C108.429 35.9412 108.063 36.9136 107.466 37.7426C106.869 38.5716 106.062 39.2277 105.129 39.644L68.6622 60.9291C66.2108 62.2146 63.4756 62.8637 60.7079 62.8169ZM60.7079 8.07036C58.0784 8.0141 55.4782 8.63149 53.1548 9.86378L16.6876 30.9129C15.869 31.2772 15.161 31.8507 14.6347 32.5757C14.1084 33.3006 13.7826 34.1515 13.6899 35.0425C13.7795 35.9315 14.1044 36.7805 14.6313 37.5022C15.1582 38.2239 15.868 38.7922 16.6876 39.1484L53.1548 60.1975C55.4912 61.385 58.0751 62.004 60.6961 62.004C63.317 62.004 65.901 61.385 68.2373 60.1975L104.728 39.1484C105.548 38.7922 106.258 38.2239 106.784 37.5022C107.311 36.7805 107.636 35.9315 107.726 35.0425C107.633 34.1515 107.307 33.3006 106.781 32.5757C106.255 31.8507 105.547 31.2772 104.728 30.9129L68.2373 9.86378C65.9217 8.63343 63.3296 8.01604 60.7079 8.07036Z" fill="#5351AF"/>
<path d="M117.309 40.7531L70.6213 67.7016C67.5493 69.2604 64.1529 70.0727 60.7079 70.0727C57.2629 70.0727 53.8664 69.2604 50.7945 67.7016L4.10699 40.7531C3.07902 40.2853 2.17332 39.586 1.4608 38.7099C0.748281 37.8338 0.248297 36.8047 3.7346e-07 35.7032C-0.0524371 37.0521 0.308169 38.3848 1.03363 39.5234C1.75908 40.6619 2.81483 41.5519 4.05978 42.0745L50.7945 69.023C53.8664 70.5818 57.2629 71.3942 60.7079 71.3942C64.1529 71.3942 67.5493 70.5818 70.6213 69.023L117.309 42.0745C118.555 41.5566 119.612 40.6669 120.334 39.5267C121.056 38.3865 121.409 37.0513 121.345 35.7032C121.102 36.7971 120.613 37.821 119.913 38.6963C119.213 39.5717 118.322 40.2752 117.309 40.7531Z" fill="white"/>
<defs>
<linearGradient id="paint0_linear_83_224" x1="621.649" y1="1840.82" x2="2751.32" y2="4928.53" gradientUnits="userSpaceOnUse">
<stop stop-color="#BCBEFF"/>
<stop offset="0.23" stop-color="#AAADF8"/>
<stop offset="0.68" stop-color="#7C83E5"/>
<stop offset="1" stop-color="#5761D7"/>
</linearGradient>
<linearGradient id="paint1_linear_83_224" x1="0" y1="3213.31" x2="6244.71" y2="3213.31" gradientUnits="userSpaceOnUse">
<stop stop-color="#E9E9FD"/>
<stop offset="0.36" stop-color="#D3D2F9"/>
<stop offset="0.71" stop-color="#C5C4F7"/>
<stop offset="1" stop-color="#C0BFF6"/>
</linearGradient>
<linearGradient id="paint2_linear_83_224" x1="621.649" y1="319.645" x2="2751.32" y2="3407.36" gradientUnits="userSpaceOnUse">
<stop stop-color="#BCBEFF"/>
<stop offset="0.23" stop-color="#AAADF8"/>
<stop offset="0.68" stop-color="#7C83E5"/>
<stop offset="1" stop-color="#5761D7"/>
</linearGradient>
<linearGradient id="paint3_linear_83_224" x1="0" y1="1040.5" x2="6244.71" y2="1040.5" gradientUnits="userSpaceOnUse">
<stop stop-color="#E9E9FD"/>
<stop offset="0.36" stop-color="#D3D2F9"/>
<stop offset="0.71" stop-color="#C5C4F7"/>
<stop offset="1" stop-color="#C0BFF6"/>
</linearGradient>
</defs>
</svg>
