<svg width="123" height="140" viewBox="0 0 123 140" fill="none" xmlns="http://www.w3.org/2000/svg">
<g opacity="0.3">
<path opacity="0.3" d="M122.125 121.792V111.221L119.198 109.592C118.372 114.595 112.495 117.875 107.585 118.559L74.1159 138.122L59.529 143.384L12.9124 119.362L13.9981 118.725C10.0092 116.86 7.86126 112.613 5.71335 108.743L2.5741 110.607L0.709412 111.126V121.981C0.836905 123.208 1.28296 124.381 2.00335 125.382C2.72375 126.384 3.69347 127.18 4.81641 127.692L51.5039 154.64C54.5759 156.199 57.9723 157.011 61.4173 157.011C64.8623 157.011 68.2587 156.199 71.3307 154.64L118.018 127.692C119.128 127.188 120.09 126.407 120.809 125.423C121.529 124.439 121.982 123.286 122.125 122.076V121.792Z" fill="url(#paint0_linear_83_223)"/>
<path opacity="0.3" d="M107.562 118.465L74.0923 138.028L61.3937 142.605V156.906C64.8453 156.977 68.2578 156.164 71.3071 154.546L117.995 127.597C119.105 127.094 120.066 126.312 120.786 125.328C121.505 124.345 121.958 123.192 122.102 121.981V121.698V111.126L119.364 109.734H119.08C118.254 114.642 112.448 117.899 107.562 118.465Z" fill="#0F054C"/>
<path opacity="0.3" d="M51.5039 143.903L4.8164 116.955C-0.659584 113.793 -0.659584 108.672 4.8164 105.51L51.5039 78.5615C54.5758 77.0027 57.9723 76.1903 61.4173 76.1903C64.8623 76.1903 68.2587 77.0027 71.3307 78.5615L118.018 105.51C123.494 108.672 123.494 113.793 118.018 116.955L71.3307 143.903C68.2587 145.462 64.8623 146.274 61.4173 146.274C57.9723 146.274 54.5758 145.462 51.5039 143.903Z" fill="url(#paint1_linear_83_223)"/>
<g opacity="0.3">
<path opacity="0.3" d="M51.5039 143.903L4.8164 116.955C-0.659584 113.793 -0.659584 108.672 4.8164 105.51L51.5039 78.5615C54.5758 77.0027 57.9723 76.1903 61.4173 76.1903C64.8623 76.1903 68.2587 77.0027 71.3307 78.5615L118.018 105.51C123.494 108.672 123.494 113.793 118.018 116.955L71.3307 143.903C68.2587 145.462 64.8623 146.274 61.4173 146.274C57.9723 146.274 54.5758 145.462 51.5039 143.903Z" fill="#0F054C"/>
</g>
</g>
<path d="M61.4173 104.684C58.3509 104.751 55.319 104.028 52.6132 102.584L5.92574 75.6354C4.83125 75.2434 3.88462 74.5229 3.21536 73.5725C2.5461 72.6221 2.18689 71.4882 2.18689 70.3259C2.18689 69.1636 2.5461 68.0296 3.21536 67.0792C3.88462 66.1288 4.83125 65.4084 5.92574 65.0164L52.6132 38.0679C55.3413 36.6833 58.3577 35.9617 61.4173 35.9617C64.4768 35.9617 67.4932 36.6833 70.2213 38.0679L117.003 65.0164C118.098 65.4084 119.044 66.1288 119.714 67.0792C120.383 68.0296 120.742 69.1636 120.742 70.3259C120.742 71.4882 120.383 72.6221 119.714 73.5725C119.044 74.5229 118.098 75.2434 117.003 75.6354L70.3157 102.584C67.582 104.044 64.5154 104.767 61.4173 104.684ZM53.0381 101.947C55.6363 103.273 58.5119 103.964 61.4291 103.964C64.3462 103.964 67.2218 103.273 69.8201 101.947L116.508 74.9982C117.55 74.7606 118.482 74.1758 119.149 73.3398C119.816 72.5038 120.179 71.4661 120.179 70.3967C120.179 69.3272 119.816 68.2895 119.149 67.4535C118.482 66.6175 117.55 66.0327 116.508 65.7951L69.7965 38.7758C67.1949 37.461 64.3206 36.776 61.4055 36.776C58.4904 36.776 55.6161 37.461 53.0145 38.7758L6.3034 65.7243C5.331 66.0396 4.48347 66.6548 3.88237 67.4814C3.28128 68.3081 2.95749 69.3039 2.95749 70.3259C2.95749 71.3479 3.28128 72.3437 3.88237 73.1703C4.48347 73.997 5.331 74.6121 6.3034 74.9274L53.0381 101.947Z" fill="#42E8E0"/>
<path opacity="0.4" d="M122.125 59.9901V43.9909L119.198 42.3627C118.372 47.3654 112.495 50.6455 107.585 51.3298L74.1159 70.8922L59.529 76.1781L12.9124 52.1321L13.9981 51.495C10.0092 49.6308 7.86126 45.3832 5.71335 41.5132L2.5741 43.3774L0.709412 43.8965V60.1553C0.820348 61.3875 1.25994 62.5673 1.98232 63.5717C2.7047 64.5762 3.68343 65.3685 4.81641 65.866L51.5039 92.8145C54.5759 94.3733 57.9723 95.1856 61.4173 95.1856C64.8623 95.1856 68.2587 94.3733 71.3307 92.8145L118.018 65.866C119.128 65.3625 120.09 64.5809 120.809 63.597C121.529 62.6131 121.982 61.4601 122.125 60.2497V59.9901Z" fill="#42E8E0"/>
<path d="M122.125 45.7843V35.2126L119.198 33.5844C118.372 38.5635 112.495 41.8436 107.585 42.5279L74.1159 62.0903L59.529 67.3762L12.9124 43.3302L13.9981 42.6931C10.0092 40.8524 7.86126 36.5813 5.71335 32.7113L2.5741 34.5755L0.709412 35.0946V45.9495C0.822776 47.181 1.26333 48.3597 1.98542 49.3637C2.70751 50.3678 3.68489 51.1606 4.81641 51.6602L51.5039 78.6087C54.5759 80.1674 57.9723 80.9798 61.4173 80.9798C64.8623 80.9798 68.2587 80.1674 71.3307 78.6087L118.018 51.6602C119.128 51.1567 120.09 50.3751 120.809 49.3912C121.529 48.4073 121.982 47.2543 122.125 46.0439V45.7843Z" fill="url(#paint2_linear_83_223)"/>
<path opacity="0.3" d="M107.562 42.5279L74.0923 62.0903L61.3937 66.6919V80.992C64.8453 81.0631 68.2578 80.2508 71.3071 78.6323L117.995 51.6838C119.105 51.1803 120.066 50.3988 120.786 49.4149C121.505 48.4309 121.958 47.278 122.102 46.0676V45.808V35.2362L119.434 33.726H119.151C118.254 38.6343 112.448 41.8672 107.562 42.5279Z" fill="#0F054C"/>
<path d="M51.5039 67.8717L4.8164 40.9232C-0.659584 37.7611 -0.659584 32.6404 4.8164 29.4784L51.5039 2.52986C54.5758 0.971081 57.9723 0.158722 61.4173 0.158722C64.8623 0.158722 68.2587 0.971081 71.3307 2.52986L118.018 29.4784C123.494 32.6404 123.494 37.7611 118.018 40.9232L71.3307 67.8717C68.2587 69.4305 64.8623 70.2429 61.4173 70.2429C57.9723 70.2429 54.5758 69.4305 51.5039 67.8717Z" fill="url(#paint3_linear_83_223)"/>
<path d="M61.4173 62.9871C58.6459 63.0411 55.9071 62.3829 53.463 61.0756L16.9958 40.0265C15.9987 39.6727 15.1356 39.0188 14.5252 38.1547C13.9148 37.2906 13.5872 36.2587 13.5872 35.2008C13.5872 34.143 13.9148 33.1111 14.5252 32.247C15.1356 31.3829 15.9987 30.729 16.9958 30.3751L53.463 9.32601C55.9298 8.08145 58.6543 7.43307 61.4173 7.43307C64.1804 7.43307 66.9049 8.08145 69.3717 9.32601L105.839 30.3751C106.836 30.729 107.699 31.3829 108.309 32.247C108.92 33.1111 109.248 34.143 109.248 35.2008C109.248 36.2587 108.92 37.2906 108.309 38.1547C107.699 39.0188 106.836 39.6727 105.839 40.0265L69.3717 61.0756C66.9276 62.3829 64.1887 63.0411 61.4173 62.9871ZM61.4173 8.21691C58.7932 8.16773 56.2005 8.79341 53.8878 10.0339L17.3971 31.1538C16.5215 31.4304 15.7568 31.9786 15.2141 32.7191C14.6714 33.4595 14.3788 34.3536 14.3788 35.2716C14.3788 36.1896 14.6714 37.0837 15.2141 37.8242C15.7568 38.5646 16.5215 39.1129 17.3971 39.3894L53.8878 60.4385C56.2242 61.626 58.8082 62.245 61.4291 62.245C64.0501 62.245 66.634 61.626 68.9704 60.4385L105.438 39.3894C106.313 39.1129 107.078 38.5646 107.621 37.8242C108.163 37.0837 108.456 36.1896 108.456 35.2716C108.456 34.3536 108.163 33.4595 107.621 32.7191C107.078 31.9786 106.313 31.4304 105.438 31.1538L68.9704 10.1047C66.6546 8.84259 64.0547 8.19277 61.4173 8.21691Z" fill="#5351AF"/>
<path d="M118.018 40.9232L71.3307 67.8717C68.2587 69.4305 64.8623 70.2429 61.4173 70.2429C57.9723 70.2429 54.5759 69.4305 51.5039 67.8717L4.81642 40.9232C3.79557 40.4459 2.89838 39.74 2.19436 38.8601C1.49033 37.9803 0.998375 36.9503 0.756637 35.8498C0.702667 37.202 1.06235 38.5385 1.7877 39.681C2.51305 40.8236 3.56959 41.7179 4.81642 42.2447L51.5039 69.1932C54.5759 70.752 57.9723 71.5644 61.4173 71.5644C64.8623 71.5644 68.2587 70.752 71.3307 69.1932L118.018 42.2447C119.265 41.7179 120.322 40.8236 121.047 39.681C121.772 38.5385 122.132 37.202 122.078 35.8498C121.836 36.9503 121.344 37.9803 120.64 38.8601C119.936 39.74 119.039 40.4459 118.018 40.9232Z" fill="white"/>
<defs>
<linearGradient id="paint0_linear_83_223" x1="24629.9" y1="10729.3" x2="26755" y2="13815.2" gradientUnits="userSpaceOnUse">
<stop stop-color="#BCBEFF"/>
<stop offset="0.23" stop-color="#AAADF8"/>
<stop offset="0.68" stop-color="#7C83E5"/>
<stop offset="1" stop-color="#5761D7"/>
</linearGradient>
<linearGradient id="paint1_linear_83_223" x1="24008.2" y1="16120.6" x2="30253.9" y2="16120.6" gradientUnits="userSpaceOnUse">
<stop stop-color="#E9E9FD"/>
<stop offset="0.36" stop-color="#D3D2F9"/>
<stop offset="0.71" stop-color="#C5C4F7"/>
<stop offset="1" stop-color="#C0BFF6"/>
</linearGradient>
<linearGradient id="paint2_linear_83_223" x1="24629.9" y1="9098.03" x2="26755" y2="12184" gradientUnits="userSpaceOnUse">
<stop stop-color="#BCBEFF"/>
<stop offset="0.23" stop-color="#AAADF8"/>
<stop offset="0.68" stop-color="#7C83E5"/>
<stop offset="1" stop-color="#5761D7"/>
</linearGradient>
<linearGradient id="paint3_linear_83_223" x1="24008.2" y1="13787.1" x2="30253.9" y2="13787.1" gradientUnits="userSpaceOnUse">
<stop stop-color="#E9E9FD"/>
<stop offset="0.36" stop-color="#D3D2F9"/>
<stop offset="0.71" stop-color="#C5C4F7"/>
<stop offset="1" stop-color="#C0BFF6"/>
</linearGradient>
</defs>
</svg>
