<svg xmlns="http://www.w3.org/2000/svg" viewBox="0 0 2560.2 2564.6"><defs><style>.cls-1{fill:#04948f;fill-rule:evenodd;}</style></defs><g id="Calque_2" data-name="Calque 2"><g id="Calque_1-2" data-name="Calque 1"><path class="cls-1" d="M360.1,1651c198.9,0,360.1-161.5,360.1-360.7S558.9,929.7,360.1,929.7,0,1091.2,0,1290.4,161.2,1651,360.1,1651Zm1272,560.8c-4.2,195.6-163.7,352.8-360,352.8-198.9,0-360.1-161.5-360.1-360.7s161.2-360.7,360.1-360.7h8c305.9,0,554.4-245.6,559.9-550.7a17.7,17.7,0,0,0,.1-2.3v-8.1c0-309.8-250.7-561-560-561-3.2,0-6.4,0-9.6.1-198.1-.9-358.4-162-358.4-360.7C912,161.5,1073.2,0,1272.1,0c198.3,0,359.2,160.6,360.1,359.1-.1,3.2-.1,6.4-.1,9.6,0,309.8,250.7,561,560,561h8c198.9,0,360.1,161.5,360.1,360.7,0,198.7-160.4,359.8-358.5,360.7-3.2-.1-6.4-.1-9.6-.1-309.3-.1-560,251-560,560.8Z"/></g></g></svg>