<svg xmlns="http://www.w3.org/2000/svg" viewBox="0 0 5000 607.4"><defs><style>.cls-1{fill:#04948f;fill-rule:evenodd;}</style></defs><g id="Calque_2" data-name="Calque 2"><g id="Calque_1-2" data-name="Calque 1"><path id="id-D6z1nYkh12" d="M404.2,602.3H0V4.4H59V550.1H404.3v52.2Zm21.9,0L676.2,4.4H726L974.4,602.3H912.1l-77.5-187H565.9l-76.6,187ZM578.6,369H821.1L700.7,73.4Zm432.9,233.3V556L1418.3,56.6h-400V4.4h468.3V50.7L1084.9,550.1h400.9v52.2Zm513.7,0L1775.3,4.4H1825l248.4,597.9h-62.3l-77.5-187H1665l-76.6,187ZM1677.6,369h242.5L1799.7,73.4Zm540.7,233.3h-59V4.4H2412q38.7,0,71.2,16.4a186.58,186.58,0,0,1,56,43,198,198,0,0,1,36.6,60.2,187.7,187.7,0,0,1,13.1,68.2h0a200.63,200.63,0,0,1-9.7,62.7,195.73,195.73,0,0,1-26.9,53.9,161.77,161.77,0,0,1-41.7,40.4,147.7,147.7,0,0,1-54.7,22.3h0l146.5,230.8h-66.5L2395.1,381.6H2218.2V602.3Zm0-545.8V329.4h195.4c17.4,0,33.3-3.8,47.6-11.4a113.8,113.8,0,0,0,36.6-30.7,149,149,0,0,0,23.6-43.8,156.94,156.94,0,0,0,8.4-51.4h0a140.53,140.53,0,0,0-9.7-51.8,145.1,145.1,0,0,0-26.1-43.4,124.14,124.14,0,0,0-38.7-29.5,104.6,104.6,0,0,0-46.7-10.9H2218.3ZM3302.2,69.2l-28.6,47.2q-25.2-28.65-67.4-46.3t-96-17.7h0q-79.2,0-115.4,29.9t-36.2,81.3h0c0,18,3.2,32.7,9.7,44.2s16.4,21.5,29.9,29.9,30.7,15.7,51.8,21.9,45.9,12.4,74.5,18.5h0a803.61,803.61,0,0,1,86.3,22.7q38.25,12.6,65.3,31.6c18,12.6,31.7,27.9,41.3,45.9s14.3,40.4,14.3,67.4h0q0,41.25-16,71.6a142.16,142.16,0,0,1-44.6,50.5c-19.1,13.5-41.8,23.4-68.2,29.9s-55.3,9.7-86.7,9.7h0q-138.9,0-240-86.7h0l29.5-48a235.07,235.07,0,0,0,38.3,32,278.41,278.41,0,0,0,49.7,26.5,313.65,313.65,0,0,0,58.5,17.7,331.39,331.39,0,0,0,65.7,6.3h0q71.55,0,111.6-25.7t40-77.9h0c0-18.5-3.8-34.1-11.4-46.7s-18.9-23.6-34.1-32.8-34-17.3-56.4-24-48.6-13.5-78.3-20.2h0c-31.4-7.3-59-14.9-82.5-22.7s-43.5-17.7-59.8-29.5-28.5-26-36.6-42.5-12.2-36.9-12.2-61.1h0q0-41.25,15.6-73.7A144.75,144.75,0,0,1,2958,44.5c19.1-14.3,41.5-25.3,67.4-32.8S3079.9.3,3111.3.3h0q59.85,0,106.5,18.1a286.19,286.19,0,0,1,84.4,50.8Zm836.3,533.1h-59V4.4H4472V56.6H4138.5V276.4h281.3v48.8H4138.5ZM5000,4.3V56.5H4786.9V602.2h-59V56.5H4514.8V4.3Z"/><path class="cls-1" d="M3488.1,391a85.4,85.4,0,1,0-85.2-85.4,85.25,85.25,0,0,0,85.2,85.4Zm301.1,132.8a85.21,85.21,0,1,1-85.2-87.3h1.9c72.4,0,131.3-58.2,132.6-130.4v-2.5a132.69,132.69,0,0,0-132.6-132.8h-2.3A85.4,85.4,0,1,1,3789.1,85v2.3a132.69,132.69,0,0,0,132.6,132.8h1.9a85.4,85.4,0,0,1,.3,170.8h-2.3c-73,.1-132.4,59.5-132.4,132.9Z"/></g></g></svg>